%TF.GenerationSoftware,KiCad,Pcbnew,8.0.2*%
%TF.CreationDate,2024-05-18T21:01:54+12:00*%
%TF.ProjectId,yuzu-pcb,79757a75-2d70-4636-922e-6b696361645f,rev?*%
%TF.SameCoordinates,Original*%
%TF.FileFunction,Copper,L2,Bot*%
%TF.FilePolarity,Positive*%
%FSLAX46Y46*%
G04 Gerber Fmt 4.6, Leading zero omitted, Abs format (unit mm)*
G04 Created by KiCad (PCBNEW 8.0.2) date 2024-05-18 21:01:54*
%MOMM*%
%LPD*%
G01*
G04 APERTURE LIST*
%TA.AperFunction,ComponentPad*%
%ADD10C,1.778000*%
%TD*%
%TA.AperFunction,ComponentPad*%
%ADD11C,3.810000*%
%TD*%
%TA.AperFunction,SMDPad,CuDef*%
%ADD12R,2.600000X3.600000*%
%TD*%
%TA.AperFunction,ViaPad*%
%ADD13C,0.600000*%
%TD*%
%TA.AperFunction,Conductor*%
%ADD14C,0.200000*%
%TD*%
G04 APERTURE END LIST*
D10*
%TO.P,TP3,1,1*%
%TO.N,Net-(U1-P0.02{slash}AIN0)*%
X110780000Y-121600000D03*
%TD*%
%TO.P,TP2,1,1*%
%TO.N,Net-(U1-P0.28{slash}AIN4)*%
X108240000Y-121600000D03*
%TD*%
%TO.P,TP9,1,1*%
%TO.N,/RESET*%
X115860000Y-101400000D03*
%TD*%
%TO.P,TP4,1,1*%
%TO.N,Net-(U1-P0.29{slash}AIN5)*%
X113320000Y-121600000D03*
%TD*%
%TO.P,TP6,1,1*%
%TO.N,/SWCLK*%
X108240000Y-101400000D03*
%TD*%
%TO.P,TP1,1,1*%
%TO.N,Net-(U1-P0.03{slash}AIN1)*%
X105700000Y-121600000D03*
%TD*%
%TO.P,TP5,1,1*%
%TO.N,GND*%
X105700000Y-101400000D03*
%TD*%
D11*
%TO.P,REF\u002A\u002A,1*%
%TO.N,N/C*%
X134500000Y-102500000D03*
%TD*%
D10*
%TO.P,TP10,1,1*%
%TO.N,/nrf_VDD*%
X118400000Y-101400000D03*
%TD*%
%TO.P,TP8,1,1*%
%TO.N,/SWO*%
X113320000Y-101400000D03*
%TD*%
%TO.P,TP7,1,1*%
%TO.N,/SWDIO*%
X110780000Y-101400000D03*
%TD*%
D12*
%TO.P,BT1,1,+*%
%TO.N,/nrf_VDD*%
X134350000Y-111250000D03*
%TO.P,BT1,2,-*%
%TO.N,GND*%
X105050000Y-111250000D03*
%TD*%
D13*
%TO.N,GND*%
X129740000Y-116350000D03*
X109490000Y-119100000D03*
X105240000Y-119100000D03*
%TO.N,/nrf_VDD*%
X134350000Y-111250000D03*
X134200000Y-115050000D03*
X131468329Y-116900000D03*
X127950000Y-109800000D03*
%TO.N,GND*%
X108750000Y-110250000D03*
X123240000Y-103600000D03*
X125990000Y-116850000D03*
X135200735Y-119549265D03*
X112250000Y-113750000D03*
X117914215Y-109250000D03*
X135750000Y-114750000D03*
%TO.N,/SCL*%
X128384098Y-111082628D03*
X126445735Y-114350000D03*
%TO.N,/SWDIO*%
X109320000Y-104400000D03*
X118555421Y-110862149D03*
%TO.N,/SWO*%
X119590000Y-109600000D03*
%TO.N,/SWCLK*%
X119170000Y-110350000D03*
X116820000Y-103650000D03*
%TD*%
D14*
%TO.N,/nrf_VDD*%
X134200000Y-114300000D02*
X134350000Y-114150000D01*
X129400000Y-111250000D02*
X134350000Y-111250000D01*
X118400000Y-101400000D02*
X126800000Y-109800000D01*
X134200000Y-115050000D02*
X134200000Y-114300000D01*
X126800000Y-109800000D02*
X127950000Y-109800000D01*
X134350000Y-114150000D02*
X134350000Y-111250000D01*
X127950000Y-109800000D02*
X129400000Y-111250000D01*
X133318329Y-115050000D02*
X134200000Y-115050000D01*
X131468329Y-116900000D02*
X133318329Y-115050000D01*
%TO.N,GND*%
X105700000Y-101400000D02*
X105700000Y-102900000D01*
X105450000Y-101150000D02*
X104200000Y-101150000D01*
X105450000Y-101150000D02*
X105700000Y-101400000D01*
%TO.N,/SCL*%
X128384098Y-112411637D02*
X126445735Y-114350000D01*
X128384098Y-111082628D02*
X128384098Y-112411637D01*
%TO.N,/SWDIO*%
X118555421Y-110862149D02*
X118570000Y-110847570D01*
X118570000Y-104920000D02*
X118050000Y-104400000D01*
X118570000Y-110847570D02*
X118570000Y-104920000D01*
X118050000Y-104400000D02*
X109320000Y-104400000D01*
X110780000Y-101400000D02*
X110780000Y-102940000D01*
X110780000Y-102940000D02*
X109320000Y-104400000D01*
%TO.N,/SWO*%
X114970000Y-103050000D02*
X113320000Y-101400000D01*
X119570000Y-109580000D02*
X119570000Y-104788628D01*
X119570000Y-104788628D02*
X117831372Y-103050000D01*
X117831372Y-103050000D02*
X114970000Y-103050000D01*
X119590000Y-109600000D02*
X119570000Y-109580000D01*
%TO.N,/SWCLK*%
X118990000Y-110170000D02*
X118990000Y-104774314D01*
X117865686Y-103650000D02*
X116820000Y-103650000D01*
X118990000Y-104774314D02*
X117865686Y-103650000D01*
X119170000Y-110350000D02*
X118990000Y-110170000D01*
%TD*%
%TA.AperFunction,Conductor*%
%TO.N,GND*%
G36*
X104466412Y-100520185D02*
G01*
X104512167Y-100572989D01*
X104522111Y-100642147D01*
X104503182Y-100692321D01*
X104474224Y-100736644D01*
X104381757Y-100947446D01*
X104325249Y-101170591D01*
X104325247Y-101170603D01*
X104306240Y-101399994D01*
X104306240Y-101400005D01*
X104325247Y-101629396D01*
X104325249Y-101629408D01*
X104381757Y-101852553D01*
X104474223Y-102063352D01*
X104556760Y-102189684D01*
X105217036Y-101529407D01*
X105234075Y-101592993D01*
X105299901Y-101707007D01*
X105392993Y-101800099D01*
X105507007Y-101865925D01*
X105570590Y-101882962D01*
X104909040Y-102544512D01*
X104909040Y-102544514D01*
X104937677Y-102566803D01*
X104937683Y-102566807D01*
X105140131Y-102676367D01*
X105140140Y-102676370D01*
X105357849Y-102751110D01*
X105584905Y-102789000D01*
X105815095Y-102789000D01*
X106042150Y-102751110D01*
X106259859Y-102676370D01*
X106259868Y-102676367D01*
X106462315Y-102566807D01*
X106462316Y-102566806D01*
X106490958Y-102544513D01*
X106490959Y-102544511D01*
X105829410Y-101882962D01*
X105892993Y-101865925D01*
X106007007Y-101800099D01*
X106100099Y-101707007D01*
X106165925Y-101592993D01*
X106182962Y-101529409D01*
X106843238Y-102189685D01*
X106865892Y-102155012D01*
X106919038Y-102109656D01*
X106988269Y-102100232D01*
X107051605Y-102129734D01*
X107073509Y-102155013D01*
X107139728Y-102256370D01*
X107139731Y-102256373D01*
X107295692Y-102425792D01*
X107391027Y-102499994D01*
X107476868Y-102566807D01*
X107477411Y-102567229D01*
X107679931Y-102676828D01*
X107793025Y-102715653D01*
X107897725Y-102751597D01*
X107897727Y-102751597D01*
X107897729Y-102751598D01*
X108124863Y-102789500D01*
X108124864Y-102789500D01*
X108355136Y-102789500D01*
X108355137Y-102789500D01*
X108582271Y-102751598D01*
X108583693Y-102751110D01*
X108590662Y-102748717D01*
X108800069Y-102676828D01*
X109002589Y-102567229D01*
X109184308Y-102425792D01*
X109340269Y-102256373D01*
X109378460Y-102197918D01*
X109406191Y-102155472D01*
X109459337Y-102110115D01*
X109528569Y-102100691D01*
X109591905Y-102130193D01*
X109613809Y-102155472D01*
X109679728Y-102256370D01*
X109679731Y-102256373D01*
X109835692Y-102425792D01*
X109931027Y-102499994D01*
X110016868Y-102566807D01*
X110017411Y-102567229D01*
X110056813Y-102588552D01*
X110106402Y-102637769D01*
X110121512Y-102705985D01*
X110097342Y-102771541D01*
X110085476Y-102785287D01*
X109301465Y-103569298D01*
X109240142Y-103602783D01*
X109227668Y-103604837D01*
X109140750Y-103614630D01*
X108970478Y-103674210D01*
X108817737Y-103770184D01*
X108690184Y-103897737D01*
X108594211Y-104050476D01*
X108534631Y-104220745D01*
X108534630Y-104220750D01*
X108514435Y-104399996D01*
X108514435Y-104400003D01*
X108534630Y-104579249D01*
X108534631Y-104579254D01*
X108594211Y-104749523D01*
X108668381Y-104867563D01*
X108690184Y-104902262D01*
X108817738Y-105029816D01*
X108970478Y-105125789D01*
X109093211Y-105168735D01*
X109140745Y-105185368D01*
X109140750Y-105185369D01*
X109319996Y-105205565D01*
X109320000Y-105205565D01*
X109320004Y-105205565D01*
X109499249Y-105185369D01*
X109499252Y-105185368D01*
X109499255Y-105185368D01*
X109669522Y-105125789D01*
X109822262Y-105029816D01*
X109822267Y-105029810D01*
X109825097Y-105027555D01*
X109827275Y-105026665D01*
X109828158Y-105026111D01*
X109828255Y-105026265D01*
X109889783Y-105001145D01*
X109902412Y-105000500D01*
X117749903Y-105000500D01*
X117816942Y-105020185D01*
X117837584Y-105036819D01*
X117933181Y-105132416D01*
X117966666Y-105193739D01*
X117969500Y-105220097D01*
X117969500Y-110264630D01*
X117949815Y-110331669D01*
X117933181Y-110352311D01*
X117925605Y-110359886D01*
X117829632Y-110512625D01*
X117770052Y-110682894D01*
X117770051Y-110682899D01*
X117749856Y-110862145D01*
X117749856Y-110862152D01*
X117770051Y-111041398D01*
X117770052Y-111041403D01*
X117829632Y-111211672D01*
X117861182Y-111261883D01*
X117925605Y-111364411D01*
X118053159Y-111491965D01*
X118065947Y-111500000D01*
X118201049Y-111584891D01*
X118205899Y-111587938D01*
X118280969Y-111614206D01*
X118376166Y-111647517D01*
X118376171Y-111647518D01*
X118555417Y-111667714D01*
X118555421Y-111667714D01*
X118555425Y-111667714D01*
X118734670Y-111647518D01*
X118734673Y-111647517D01*
X118734676Y-111647517D01*
X118904943Y-111587938D01*
X119057683Y-111491965D01*
X119185237Y-111364411D01*
X119281210Y-111211671D01*
X119282415Y-111208226D01*
X119283798Y-111206297D01*
X119284233Y-111205395D01*
X119284390Y-111205471D01*
X119323131Y-111151448D01*
X119358503Y-111132131D01*
X119519522Y-111075789D01*
X119672262Y-110979816D01*
X119799816Y-110852262D01*
X119895789Y-110699522D01*
X119955368Y-110529255D01*
X119974561Y-110358909D01*
X120001627Y-110294496D01*
X120031805Y-110267802D01*
X120092262Y-110229816D01*
X120219816Y-110102262D01*
X120315789Y-109949522D01*
X120375368Y-109779255D01*
X120378576Y-109750784D01*
X120395565Y-109600003D01*
X120395565Y-109599996D01*
X120375369Y-109420750D01*
X120375368Y-109420745D01*
X120332326Y-109297738D01*
X120315789Y-109250478D01*
X120219816Y-109097738D01*
X120206819Y-109084741D01*
X120173334Y-109023418D01*
X120170500Y-108997060D01*
X120170500Y-104709571D01*
X120169145Y-104704512D01*
X120169145Y-104704511D01*
X120135582Y-104579254D01*
X120129577Y-104556843D01*
X120084667Y-104479057D01*
X120050520Y-104419912D01*
X119938716Y-104308108D01*
X119938715Y-104308107D01*
X119934385Y-104303777D01*
X119934374Y-104303767D01*
X118604036Y-102973429D01*
X118570551Y-102912106D01*
X118575535Y-102842414D01*
X118617407Y-102786481D01*
X118671307Y-102763439D01*
X118713070Y-102756470D01*
X118742267Y-102751599D01*
X118742268Y-102751598D01*
X118742271Y-102751598D01*
X118788239Y-102735816D01*
X118858034Y-102732666D01*
X118916182Y-102765417D01*
X126315139Y-110164374D01*
X126315149Y-110164385D01*
X126319479Y-110168715D01*
X126319480Y-110168716D01*
X126431284Y-110280520D01*
X126504630Y-110322866D01*
X126568215Y-110359577D01*
X126720943Y-110400501D01*
X126720946Y-110400501D01*
X126886653Y-110400501D01*
X126886669Y-110400500D01*
X127367588Y-110400500D01*
X127434627Y-110420185D01*
X127444903Y-110427555D01*
X127447736Y-110429814D01*
X127447738Y-110429816D01*
X127530507Y-110481823D01*
X127600477Y-110525789D01*
X127607905Y-110528388D01*
X127664682Y-110569109D01*
X127690430Y-110634062D01*
X127676974Y-110702623D01*
X127671946Y-110711401D01*
X127658310Y-110733102D01*
X127598729Y-110903373D01*
X127598728Y-110903378D01*
X127578533Y-111082624D01*
X127578533Y-111082631D01*
X127598728Y-111261877D01*
X127598729Y-111261882D01*
X127658309Y-111432151D01*
X127754283Y-111584891D01*
X127756543Y-111587725D01*
X127757432Y-111589903D01*
X127757987Y-111590786D01*
X127757832Y-111590883D01*
X127782953Y-111652411D01*
X127783598Y-111665040D01*
X127783598Y-112111539D01*
X127763913Y-112178578D01*
X127747279Y-112199220D01*
X126427200Y-113519298D01*
X126365877Y-113552783D01*
X126353403Y-113554837D01*
X126266485Y-113564630D01*
X126096213Y-113624210D01*
X125943472Y-113720184D01*
X125815919Y-113847737D01*
X125719946Y-114000476D01*
X125660366Y-114170745D01*
X125660365Y-114170750D01*
X125640170Y-114349996D01*
X125640170Y-114350003D01*
X125660365Y-114529249D01*
X125660366Y-114529254D01*
X125719946Y-114699523D01*
X125815919Y-114852262D01*
X125943473Y-114979816D01*
X126096213Y-115075789D01*
X126266480Y-115135368D01*
X126266485Y-115135369D01*
X126445731Y-115155565D01*
X126445735Y-115155565D01*
X126445739Y-115155565D01*
X126624984Y-115135369D01*
X126624987Y-115135368D01*
X126624990Y-115135368D01*
X126795257Y-115075789D01*
X126947997Y-114979816D01*
X127075551Y-114852262D01*
X127171524Y-114699522D01*
X127231103Y-114529255D01*
X127240896Y-114442329D01*
X127267961Y-114377918D01*
X127276425Y-114368543D01*
X128752811Y-112892158D01*
X128752814Y-112892157D01*
X128864618Y-112780353D01*
X128914737Y-112693541D01*
X128943675Y-112643422D01*
X128984598Y-112490695D01*
X128984598Y-112332580D01*
X128984598Y-111918339D01*
X129004283Y-111851300D01*
X129057087Y-111805545D01*
X129126245Y-111795601D01*
X129160320Y-111807395D01*
X129160706Y-111806466D01*
X129168214Y-111809576D01*
X129168216Y-111809577D01*
X129320943Y-111850501D01*
X129320945Y-111850501D01*
X129486654Y-111850501D01*
X129486670Y-111850500D01*
X132425501Y-111850500D01*
X132492540Y-111870185D01*
X132538295Y-111922989D01*
X132549501Y-111974500D01*
X132549501Y-113097876D01*
X132555908Y-113157483D01*
X132606202Y-113292328D01*
X132606206Y-113292335D01*
X132692452Y-113407544D01*
X132692455Y-113407547D01*
X132807664Y-113493793D01*
X132807671Y-113493797D01*
X132852618Y-113510561D01*
X132942517Y-113544091D01*
X133002127Y-113550500D01*
X133625500Y-113550499D01*
X133692539Y-113570183D01*
X133738294Y-113622987D01*
X133749500Y-113674499D01*
X133749500Y-113850069D01*
X133729815Y-113917108D01*
X133723875Y-113925557D01*
X133719480Y-113931284D01*
X133690613Y-113981284D01*
X133640423Y-114068215D01*
X133599499Y-114220943D01*
X133599499Y-114220945D01*
X133599499Y-114325500D01*
X133579814Y-114392539D01*
X133527010Y-114438294D01*
X133475499Y-114449500D01*
X133397386Y-114449500D01*
X133239272Y-114449500D01*
X133086544Y-114490423D01*
X133086543Y-114490423D01*
X133086541Y-114490424D01*
X133086538Y-114490425D01*
X133051395Y-114510716D01*
X133051393Y-114510717D01*
X132949619Y-114569475D01*
X132949611Y-114569481D01*
X132837807Y-114681286D01*
X131449794Y-116069298D01*
X131388471Y-116102783D01*
X131375997Y-116104837D01*
X131289079Y-116114630D01*
X131118807Y-116174210D01*
X130966066Y-116270184D01*
X130838513Y-116397737D01*
X130742540Y-116550476D01*
X130682960Y-116720745D01*
X130682959Y-116720750D01*
X130662764Y-116899996D01*
X130662764Y-116900003D01*
X130682959Y-117079249D01*
X130682960Y-117079254D01*
X130742540Y-117249523D01*
X130771538Y-117295672D01*
X130838513Y-117402262D01*
X130966067Y-117529816D01*
X131118807Y-117625789D01*
X131171177Y-117644114D01*
X131289074Y-117685368D01*
X131289079Y-117685369D01*
X131468325Y-117705565D01*
X131468329Y-117705565D01*
X131468333Y-117705565D01*
X131647578Y-117685369D01*
X131647581Y-117685368D01*
X131647584Y-117685368D01*
X131817851Y-117625789D01*
X131970591Y-117529816D01*
X132098145Y-117402262D01*
X132194118Y-117249522D01*
X132253697Y-117079255D01*
X132263490Y-116992329D01*
X132290555Y-116927918D01*
X132299019Y-116918543D01*
X133530375Y-115687188D01*
X133591696Y-115653705D01*
X133661388Y-115658689D01*
X133695374Y-115677930D01*
X133697734Y-115679812D01*
X133697738Y-115679816D01*
X133850478Y-115775789D01*
X134020745Y-115835368D01*
X134020750Y-115835369D01*
X134199996Y-115855565D01*
X134200000Y-115855565D01*
X134200004Y-115855565D01*
X134379249Y-115835369D01*
X134379252Y-115835368D01*
X134379255Y-115835368D01*
X134549522Y-115775789D01*
X134702262Y-115679816D01*
X134829816Y-115552262D01*
X134925789Y-115399522D01*
X134985368Y-115229255D01*
X134993671Y-115155565D01*
X135005565Y-115050003D01*
X135005565Y-115049996D01*
X134985369Y-114870750D01*
X134985368Y-114870745D01*
X134925789Y-114700478D01*
X134861201Y-114597688D01*
X134842202Y-114530453D01*
X134858807Y-114469720D01*
X134899349Y-114399500D01*
X134909577Y-114381785D01*
X134950501Y-114229057D01*
X134950501Y-114070943D01*
X134950501Y-114063348D01*
X134950500Y-114063330D01*
X134950500Y-113674499D01*
X134970185Y-113607460D01*
X135022989Y-113561705D01*
X135074500Y-113550499D01*
X135697871Y-113550499D01*
X135697872Y-113550499D01*
X135757483Y-113544091D01*
X135892331Y-113493796D01*
X136007546Y-113407546D01*
X136093796Y-113292331D01*
X136144091Y-113157483D01*
X136150500Y-113097873D01*
X136150499Y-109402128D01*
X136144091Y-109342517D01*
X136093884Y-109207906D01*
X136093797Y-109207671D01*
X136093793Y-109207664D01*
X136007547Y-109092455D01*
X136007544Y-109092452D01*
X135892335Y-109006206D01*
X135892328Y-109006202D01*
X135757482Y-108955908D01*
X135757483Y-108955908D01*
X135697883Y-108949501D01*
X135697881Y-108949500D01*
X135697873Y-108949500D01*
X135697864Y-108949500D01*
X133002129Y-108949500D01*
X133002123Y-108949501D01*
X132942516Y-108955908D01*
X132807671Y-109006202D01*
X132807664Y-109006206D01*
X132692455Y-109092452D01*
X132692452Y-109092455D01*
X132606206Y-109207664D01*
X132606202Y-109207671D01*
X132555908Y-109342517D01*
X132549501Y-109402116D01*
X132549501Y-109402123D01*
X132549500Y-109402135D01*
X132549500Y-110525500D01*
X132529815Y-110592539D01*
X132477011Y-110638294D01*
X132425500Y-110649500D01*
X129700098Y-110649500D01*
X129633059Y-110629815D01*
X129612417Y-110613181D01*
X128780700Y-109781465D01*
X128747215Y-109720142D01*
X128745163Y-109707686D01*
X128735368Y-109620745D01*
X128675789Y-109450478D01*
X128579816Y-109297738D01*
X128452262Y-109170184D01*
X128441117Y-109163181D01*
X128299523Y-109074211D01*
X128129254Y-109014631D01*
X128129249Y-109014630D01*
X127950004Y-108994435D01*
X127949996Y-108994435D01*
X127770750Y-109014630D01*
X127770745Y-109014631D01*
X127600476Y-109074211D01*
X127447736Y-109170185D01*
X127444903Y-109172445D01*
X127442724Y-109173334D01*
X127441842Y-109173889D01*
X127441744Y-109173734D01*
X127380217Y-109198855D01*
X127367588Y-109199500D01*
X127100097Y-109199500D01*
X127033058Y-109179815D01*
X127012416Y-109163181D01*
X119765150Y-101915915D01*
X119731665Y-101854592D01*
X119732625Y-101797794D01*
X119743828Y-101753553D01*
X119775246Y-101629488D01*
X119785192Y-101509461D01*
X119794262Y-101400005D01*
X119794262Y-101399994D01*
X119777652Y-101199552D01*
X119775246Y-101170512D01*
X119718717Y-100947284D01*
X119626217Y-100736405D01*
X119612162Y-100714892D01*
X119597416Y-100692321D01*
X119577228Y-100625431D01*
X119596409Y-100558246D01*
X119648868Y-100512096D01*
X119701225Y-100500500D01*
X132802061Y-100500500D01*
X132869100Y-100520185D01*
X132914855Y-100572989D01*
X132924799Y-100642147D01*
X132895774Y-100705703D01*
X132886945Y-100714892D01*
X132743001Y-100850064D01*
X132550058Y-101083291D01*
X132387880Y-101338844D01*
X132259000Y-101612728D01*
X132165468Y-101900589D01*
X132108749Y-102197918D01*
X132108748Y-102197925D01*
X132089744Y-102499994D01*
X132089744Y-102500005D01*
X132108748Y-102802074D01*
X132108749Y-102802081D01*
X132165468Y-103099410D01*
X132229642Y-103296916D01*
X132259001Y-103387274D01*
X132387877Y-103661150D01*
X132387879Y-103661153D01*
X132387880Y-103661155D01*
X132550058Y-103916708D01*
X132550061Y-103916712D01*
X132550062Y-103916713D01*
X132742999Y-104149934D01*
X132911438Y-104308108D01*
X132963643Y-104357132D01*
X132963653Y-104357140D01*
X133208508Y-104535038D01*
X133208513Y-104535040D01*
X133208520Y-104535046D01*
X133473763Y-104680865D01*
X133473768Y-104680867D01*
X133473770Y-104680868D01*
X133473771Y-104680869D01*
X133755186Y-104792289D01*
X133755189Y-104792290D01*
X134048359Y-104867563D01*
X134048363Y-104867564D01*
X134111360Y-104875522D01*
X134348647Y-104905499D01*
X134348656Y-104905499D01*
X134348659Y-104905500D01*
X134348661Y-104905500D01*
X134651339Y-104905500D01*
X134651341Y-104905500D01*
X134651344Y-104905499D01*
X134651352Y-104905499D01*
X134830539Y-104882862D01*
X134951637Y-104867564D01*
X135244810Y-104792290D01*
X135244813Y-104792289D01*
X135526228Y-104680869D01*
X135526229Y-104680868D01*
X135526227Y-104680868D01*
X135526237Y-104680865D01*
X135791480Y-104535046D01*
X136036355Y-104357134D01*
X136257001Y-104149934D01*
X136279956Y-104122185D01*
X136337855Y-104083078D01*
X136407707Y-104081482D01*
X136467333Y-104117903D01*
X136497802Y-104180778D01*
X136499500Y-104201226D01*
X136499500Y-116675500D01*
X136479815Y-116742539D01*
X136427011Y-116788294D01*
X136375500Y-116799500D01*
X134131005Y-116799500D01*
X133995677Y-116826418D01*
X133995667Y-116826421D01*
X133868195Y-116879221D01*
X133868182Y-116879228D01*
X133753458Y-116955885D01*
X133753454Y-116955888D01*
X133655888Y-117053454D01*
X133655885Y-117053458D01*
X133579228Y-117168182D01*
X133579221Y-117168195D01*
X133526421Y-117295667D01*
X133526418Y-117295677D01*
X133499500Y-117431004D01*
X133499500Y-117431007D01*
X133499500Y-117434108D01*
X133499500Y-118034108D01*
X133499500Y-118100000D01*
X133499500Y-118168993D01*
X133499500Y-118168995D01*
X133499499Y-118168995D01*
X133526418Y-118304322D01*
X133526421Y-118304332D01*
X133579221Y-118431804D01*
X133579228Y-118431817D01*
X133655885Y-118546541D01*
X133655888Y-118546545D01*
X133753454Y-118644111D01*
X133753458Y-118644114D01*
X133868182Y-118720771D01*
X133868195Y-118720778D01*
X133995667Y-118773578D01*
X133995672Y-118773580D01*
X133995676Y-118773580D01*
X133995677Y-118773581D01*
X134131004Y-118800500D01*
X134131007Y-118800500D01*
X134134108Y-118800500D01*
X136375500Y-118800500D01*
X136442539Y-118820185D01*
X136488294Y-118872989D01*
X136499500Y-118924500D01*
X136499500Y-120995572D01*
X136499184Y-121004419D01*
X136484869Y-121204557D01*
X136482351Y-121222068D01*
X136440646Y-121413787D01*
X136435662Y-121430763D01*
X136367090Y-121614609D01*
X136359740Y-121630701D01*
X136265711Y-121802904D01*
X136256146Y-121817789D01*
X136138558Y-121974867D01*
X136126972Y-121988237D01*
X135988237Y-122126972D01*
X135974867Y-122138558D01*
X135817789Y-122256146D01*
X135802904Y-122265711D01*
X135630701Y-122359740D01*
X135614609Y-122367090D01*
X135430763Y-122435662D01*
X135413787Y-122440646D01*
X135222068Y-122482351D01*
X135204557Y-122484869D01*
X135023779Y-122497799D01*
X135004417Y-122499184D01*
X134995572Y-122499500D01*
X133374500Y-122499500D01*
X133307461Y-122479815D01*
X133261706Y-122427011D01*
X133250500Y-122375500D01*
X133250500Y-120131004D01*
X133223581Y-119995677D01*
X133223580Y-119995676D01*
X133223580Y-119995672D01*
X133190714Y-119916325D01*
X133170778Y-119868195D01*
X133170771Y-119868182D01*
X133094114Y-119753458D01*
X133094111Y-119753454D01*
X132996545Y-119655888D01*
X132996541Y-119655885D01*
X132881817Y-119579228D01*
X132881804Y-119579221D01*
X132754332Y-119526421D01*
X132754322Y-119526418D01*
X132618995Y-119499500D01*
X132618993Y-119499500D01*
X132615892Y-119499500D01*
X132015892Y-119499500D01*
X131950000Y-119499500D01*
X131881007Y-119499500D01*
X131881005Y-119499500D01*
X131745677Y-119526418D01*
X131745667Y-119526421D01*
X131618195Y-119579221D01*
X131618182Y-119579228D01*
X131503458Y-119655885D01*
X131503454Y-119655888D01*
X131405888Y-119753454D01*
X131405885Y-119753458D01*
X131329228Y-119868182D01*
X131329221Y-119868195D01*
X131276421Y-119995667D01*
X131276418Y-119995677D01*
X131249500Y-120131004D01*
X131249500Y-122375500D01*
X131229815Y-122442539D01*
X131177011Y-122488294D01*
X131125500Y-122499500D01*
X114621225Y-122499500D01*
X114554186Y-122479815D01*
X114508431Y-122427011D01*
X114498487Y-122357853D01*
X114517416Y-122307679D01*
X114529608Y-122289016D01*
X114546217Y-122263595D01*
X114638717Y-122052716D01*
X114695246Y-121829488D01*
X114711718Y-121630701D01*
X114714262Y-121600005D01*
X114714262Y-121599994D01*
X114695246Y-121370515D01*
X114695246Y-121370512D01*
X114638717Y-121147284D01*
X114546217Y-120936405D01*
X114521980Y-120899308D01*
X114420271Y-120743629D01*
X114393355Y-120714390D01*
X114264308Y-120574208D01*
X114196036Y-120521070D01*
X114082591Y-120432772D01*
X113880069Y-120323172D01*
X113880061Y-120323169D01*
X113662274Y-120248402D01*
X113491920Y-120219975D01*
X113435137Y-120210500D01*
X113204863Y-120210500D01*
X113159436Y-120218080D01*
X112977725Y-120248402D01*
X112759938Y-120323169D01*
X112759930Y-120323172D01*
X112557408Y-120432772D01*
X112375694Y-120574206D01*
X112375689Y-120574211D01*
X112219727Y-120743630D01*
X112153808Y-120844528D01*
X112100662Y-120889884D01*
X112031431Y-120899308D01*
X111968095Y-120869806D01*
X111946192Y-120844528D01*
X111880272Y-120743630D01*
X111843104Y-120703256D01*
X111724308Y-120574208D01*
X111656036Y-120521070D01*
X111542591Y-120432772D01*
X111340069Y-120323172D01*
X111340061Y-120323169D01*
X111122274Y-120248402D01*
X110951920Y-120219975D01*
X110895137Y-120210500D01*
X110664863Y-120210500D01*
X110619436Y-120218080D01*
X110437725Y-120248402D01*
X110219938Y-120323169D01*
X110219930Y-120323172D01*
X110017408Y-120432772D01*
X109835694Y-120574206D01*
X109835689Y-120574211D01*
X109679727Y-120743630D01*
X109613808Y-120844528D01*
X109560662Y-120889884D01*
X109491431Y-120899308D01*
X109428095Y-120869806D01*
X109406192Y-120844528D01*
X109340272Y-120743630D01*
X109303104Y-120703256D01*
X109184308Y-120574208D01*
X109116036Y-120521070D01*
X109002591Y-120432772D01*
X108800069Y-120323172D01*
X108800061Y-120323169D01*
X108582274Y-120248402D01*
X108411920Y-120219975D01*
X108355137Y-120210500D01*
X108124863Y-120210500D01*
X108079436Y-120218080D01*
X107897725Y-120248402D01*
X107679938Y-120323169D01*
X107679930Y-120323172D01*
X107477408Y-120432772D01*
X107295694Y-120574206D01*
X107295689Y-120574211D01*
X107139727Y-120743630D01*
X107073808Y-120844528D01*
X107020662Y-120889884D01*
X106951431Y-120899308D01*
X106888095Y-120869806D01*
X106866192Y-120844528D01*
X106800272Y-120743630D01*
X106763104Y-120703256D01*
X106644308Y-120574208D01*
X106576036Y-120521070D01*
X106462591Y-120432772D01*
X106260069Y-120323172D01*
X106260061Y-120323169D01*
X106042274Y-120248402D01*
X105871920Y-120219975D01*
X105815137Y-120210500D01*
X105584863Y-120210500D01*
X105539436Y-120218080D01*
X105357725Y-120248402D01*
X105139938Y-120323169D01*
X105139930Y-120323172D01*
X104937408Y-120432772D01*
X104755694Y-120574206D01*
X104755689Y-120574211D01*
X104599728Y-120743629D01*
X104473782Y-120936405D01*
X104381282Y-121147285D01*
X104324753Y-121370515D01*
X104305738Y-121599994D01*
X104305738Y-121600005D01*
X104324753Y-121829484D01*
X104381282Y-122052714D01*
X104473782Y-122263594D01*
X104502584Y-122307679D01*
X104522772Y-122374569D01*
X104503591Y-122441754D01*
X104451132Y-122487904D01*
X104398775Y-122499500D01*
X103594000Y-122499500D01*
X103526961Y-122479815D01*
X103481206Y-122427011D01*
X103470000Y-122375500D01*
X103470000Y-121731674D01*
X103489685Y-121664635D01*
X103506319Y-121643993D01*
X103550318Y-121599994D01*
X103659773Y-121490539D01*
X103800448Y-121296916D01*
X103909103Y-121083670D01*
X103983061Y-120856051D01*
X104003953Y-120724135D01*
X104020500Y-120619671D01*
X104020500Y-120380328D01*
X103993601Y-120210500D01*
X103983061Y-120143949D01*
X103909103Y-119916330D01*
X103909101Y-119916327D01*
X103909101Y-119916325D01*
X103869681Y-119838961D01*
X103800448Y-119703084D01*
X103710462Y-119579228D01*
X103659779Y-119509468D01*
X103659775Y-119509464D01*
X103659773Y-119509461D01*
X103506318Y-119356006D01*
X103472834Y-119294683D01*
X103470000Y-119268325D01*
X103470000Y-118061362D01*
X103480000Y-118027306D01*
X103480000Y-113661536D01*
X103499685Y-113594497D01*
X103552489Y-113548742D01*
X103621647Y-113538798D01*
X103634978Y-113542201D01*
X103635070Y-113541813D01*
X103642627Y-113543598D01*
X103702155Y-113549999D01*
X103702172Y-113550000D01*
X104800000Y-113550000D01*
X105300000Y-113550000D01*
X106397828Y-113550000D01*
X106397844Y-113549999D01*
X106457372Y-113543598D01*
X106457379Y-113543596D01*
X106592086Y-113493354D01*
X106592093Y-113493350D01*
X106707187Y-113407190D01*
X106707190Y-113407187D01*
X106793350Y-113292093D01*
X106793354Y-113292086D01*
X106843596Y-113157379D01*
X106843598Y-113157372D01*
X106849999Y-113097844D01*
X106850000Y-113097827D01*
X106850000Y-111500000D01*
X105300000Y-111500000D01*
X105300000Y-113550000D01*
X104800000Y-113550000D01*
X104800000Y-111000000D01*
X105300000Y-111000000D01*
X106850000Y-111000000D01*
X106850000Y-109402172D01*
X106849999Y-109402155D01*
X106843598Y-109342627D01*
X106843596Y-109342620D01*
X106793354Y-109207913D01*
X106793350Y-109207906D01*
X106707190Y-109092812D01*
X106707187Y-109092809D01*
X106592093Y-109006649D01*
X106592086Y-109006645D01*
X106457379Y-108956403D01*
X106457372Y-108956401D01*
X106397844Y-108950000D01*
X105300000Y-108950000D01*
X105300000Y-111000000D01*
X104800000Y-111000000D01*
X104800000Y-108950000D01*
X103702155Y-108950000D01*
X103642627Y-108956401D01*
X103635070Y-108958187D01*
X103634451Y-108955569D01*
X103577623Y-108959625D01*
X103516305Y-108926130D01*
X103482830Y-108864802D01*
X103480000Y-108838463D01*
X103480000Y-104978119D01*
X103472834Y-104964996D01*
X103470000Y-104938638D01*
X103470000Y-103731674D01*
X103489685Y-103664635D01*
X103506319Y-103643993D01*
X103582199Y-103568113D01*
X103659773Y-103490539D01*
X103800448Y-103296916D01*
X103909103Y-103083670D01*
X103983061Y-102856051D01*
X104003953Y-102724135D01*
X104020500Y-102619671D01*
X104020500Y-102380328D01*
X104000644Y-102254970D01*
X103983061Y-102143949D01*
X103909103Y-101916330D01*
X103909101Y-101916327D01*
X103909101Y-101916325D01*
X103826163Y-101753553D01*
X103800448Y-101703084D01*
X103746975Y-101629484D01*
X103659779Y-101509468D01*
X103659775Y-101509464D01*
X103659773Y-101509461D01*
X103506318Y-101356006D01*
X103472834Y-101294683D01*
X103470000Y-101268325D01*
X103470000Y-100624500D01*
X103489685Y-100557461D01*
X103542489Y-100511706D01*
X103594000Y-100500500D01*
X104399373Y-100500500D01*
X104466412Y-100520185D01*
G37*
%TD.AperFunction*%
%TD*%
M02*
