%TF.GenerationSoftware,KiCad,Pcbnew,8.0.4*%
%TF.CreationDate,2024-08-13T11:19:50+12:00*%
%TF.ProjectId,yuzu-pcb,79757a75-2d70-4636-922e-6b696361645f,rev?*%
%TF.SameCoordinates,Original*%
%TF.FileFunction,Copper,L1,Top*%
%TF.FilePolarity,Positive*%
%FSLAX46Y46*%
G04 Gerber Fmt 4.6, Leading zero omitted, Abs format (unit mm)*
G04 Created by KiCad (PCBNEW 8.0.4) date 2024-08-13 11:19:50*
%MOMM*%
%LPD*%
G01*
G04 APERTURE LIST*
G04 Aperture macros list*
%AMRoundRect*
0 Rectangle with rounded corners*
0 $1 Rounding radius*
0 $2 $3 $4 $5 $6 $7 $8 $9 X,Y pos of 4 corners*
0 Add a 4 corners polygon primitive as box body*
4,1,4,$2,$3,$4,$5,$6,$7,$8,$9,$2,$3,0*
0 Add four circle primitives for the rounded corners*
1,1,$1+$1,$2,$3*
1,1,$1+$1,$4,$5*
1,1,$1+$1,$6,$7*
1,1,$1+$1,$8,$9*
0 Add four rect primitives between the rounded corners*
20,1,$1+$1,$2,$3,$4,$5,0*
20,1,$1+$1,$4,$5,$6,$7,0*
20,1,$1+$1,$6,$7,$8,$9,0*
20,1,$1+$1,$8,$9,$2,$3,0*%
G04 Aperture macros list end*
%TA.AperFunction,SMDPad,CuDef*%
%ADD10RoundRect,0.200000X0.200000X0.275000X-0.200000X0.275000X-0.200000X-0.275000X0.200000X-0.275000X0*%
%TD*%
%TA.AperFunction,SMDPad,CuDef*%
%ADD11RoundRect,0.150000X0.625000X-0.150000X0.625000X0.150000X-0.625000X0.150000X-0.625000X-0.150000X0*%
%TD*%
%TA.AperFunction,SMDPad,CuDef*%
%ADD12RoundRect,0.250000X0.650000X-0.350000X0.650000X0.350000X-0.650000X0.350000X-0.650000X-0.350000X0*%
%TD*%
%TA.AperFunction,SMDPad,CuDef*%
%ADD13RoundRect,0.218750X0.218750X0.256250X-0.218750X0.256250X-0.218750X-0.256250X0.218750X-0.256250X0*%
%TD*%
%TA.AperFunction,SMDPad,CuDef*%
%ADD14R,1.800000X1.000000*%
%TD*%
%TA.AperFunction,SMDPad,CuDef*%
%ADD15RoundRect,0.140000X-0.140000X-0.170000X0.140000X-0.170000X0.140000X0.170000X-0.140000X0.170000X0*%
%TD*%
%TA.AperFunction,ComponentPad*%
%ADD16C,1.778000*%
%TD*%
%TA.AperFunction,SMDPad,CuDef*%
%ADD17RoundRect,0.200000X-0.200000X-0.275000X0.200000X-0.275000X0.200000X0.275000X-0.200000X0.275000X0*%
%TD*%
%TA.AperFunction,SMDPad,CuDef*%
%ADD18R,0.500000X0.300000*%
%TD*%
%TA.AperFunction,ComponentPad*%
%ADD19C,3.810000*%
%TD*%
%TA.AperFunction,SMDPad,CuDef*%
%ADD20R,2.790000X0.740000*%
%TD*%
%TA.AperFunction,SMDPad,CuDef*%
%ADD21R,0.800000X1.000000*%
%TD*%
%TA.AperFunction,SMDPad,CuDef*%
%ADD22R,0.800000X0.999700*%
%TD*%
%TA.AperFunction,SMDPad,CuDef*%
%ADD23R,1.000000X0.800000*%
%TD*%
%TA.AperFunction,SMDPad,CuDef*%
%ADD24R,1.200000X0.800000*%
%TD*%
%TA.AperFunction,SMDPad,CuDef*%
%ADD25R,1.000000X0.745000*%
%TD*%
%TA.AperFunction,SMDPad,CuDef*%
%ADD26R,1.000000X0.765000*%
%TD*%
%TA.AperFunction,SMDPad,CuDef*%
%ADD27R,1.000000X0.785000*%
%TD*%
%TA.AperFunction,SMDPad,CuDef*%
%ADD28R,0.800000X1.200000*%
%TD*%
%TA.AperFunction,SMDPad,CuDef*%
%ADD29R,1.000000X0.700000*%
%TD*%
%TA.AperFunction,ViaPad*%
%ADD30C,0.600000*%
%TD*%
%TA.AperFunction,Conductor*%
%ADD31C,0.200000*%
%TD*%
G04 APERTURE END LIST*
D10*
%TO.P,R2,1*%
%TO.N,/nrf_VDD*%
X131315000Y-115050000D03*
%TO.P,R2,2*%
%TO.N,/SDA*%
X129665000Y-115050000D03*
%TD*%
D11*
%TO.P,J2,1,Pin_1*%
%TO.N,GND*%
X132025000Y-111300000D03*
%TO.P,J2,2,Pin_2*%
%TO.N,/nrf_VDD*%
X132025000Y-110300000D03*
%TO.P,J2,3,Pin_3*%
%TO.N,/SDA*%
X132025000Y-109300000D03*
%TO.P,J2,4,Pin_4*%
%TO.N,/SCL*%
X132025000Y-108300000D03*
D12*
%TO.P,J2,MP*%
%TO.N,N/C*%
X129500000Y-112600000D03*
X129500000Y-107000000D03*
%TD*%
D13*
%TO.P,D2,1,K*%
%TO.N,Net-(D2-K)*%
X120107500Y-119350000D03*
%TO.P,D2,2,A*%
%TO.N,/WHITE_LED*%
X118532500Y-119350000D03*
%TD*%
D14*
%TO.P,X2,1,1*%
%TO.N,/XL2*%
X119320000Y-115100000D03*
%TO.P,X2,2,2*%
%TO.N,/XL1*%
X119320000Y-117600000D03*
%TD*%
D15*
%TO.P,C3,1*%
%TO.N,/XL2*%
X121090000Y-115600000D03*
%TO.P,C3,2*%
%TO.N,GND*%
X122050000Y-115600000D03*
%TD*%
D10*
%TO.P,R3,1*%
%TO.N,/nrf_VDD*%
X131275000Y-117800000D03*
%TO.P,R3,2*%
%TO.N,/SCL*%
X129625000Y-117800000D03*
%TD*%
D16*
%TO.P,TP3,1,1*%
%TO.N,Net-(U1-P0.02{slash}AIN0)*%
X110780000Y-121600000D03*
%TD*%
%TO.P,TP2,1,1*%
%TO.N,Net-(U1-P0.28{slash}AIN4)*%
X108240000Y-121600000D03*
%TD*%
%TO.P,TP9,1,1*%
%TO.N,/RESET*%
X115860000Y-101400000D03*
%TD*%
D17*
%TO.P,R1,1*%
%TO.N,Net-(D1-K)*%
X121995000Y-121100000D03*
%TO.P,R1,2*%
%TO.N,GND*%
X123645000Y-121100000D03*
%TD*%
D16*
%TO.P,TP4,1,1*%
%TO.N,Net-(U1-P0.29{slash}AIN5)*%
X113320000Y-121600000D03*
%TD*%
D18*
%TO.P,U2,1,SDA*%
%TO.N,/SDA*%
X134300000Y-120350000D03*
%TO.P,U2,2,SCL*%
%TO.N,/SCL*%
X134300000Y-121150000D03*
%TO.P,U2,3,VDD*%
%TO.N,/nrf_VDD*%
X135700000Y-121150000D03*
%TO.P,U2,4,VSS*%
%TO.N,GND*%
X135700000Y-120350000D03*
%TD*%
D16*
%TO.P,TP6,1,1*%
%TO.N,/SWCLK*%
X108240000Y-101400000D03*
%TD*%
D17*
%TO.P,R4,1*%
%TO.N,Net-(D2-K)*%
X121995000Y-119350000D03*
%TO.P,R4,2*%
%TO.N,GND*%
X123645000Y-119350000D03*
%TD*%
D15*
%TO.P,C1,1*%
%TO.N,/XL1*%
X121090000Y-117100000D03*
%TO.P,C1,2*%
%TO.N,GND*%
X122050000Y-117100000D03*
%TD*%
D16*
%TO.P,TP1,1,1*%
%TO.N,Net-(U1-P0.03{slash}AIN1)*%
X105700000Y-121600000D03*
%TD*%
%TO.P,TP5,1,1*%
%TO.N,GND*%
X105700000Y-101400000D03*
%TD*%
D19*
%TO.P,REF\u002A\u002A,1*%
%TO.N,N/C*%
X134500000Y-102500000D03*
%TD*%
D16*
%TO.P,TP10,1,1*%
%TO.N,/nrf_VDD*%
X118400000Y-101400000D03*
%TD*%
D20*
%TO.P,J1,1,VTref*%
%TO.N,/nrf_VDD*%
X125482000Y-112390000D03*
%TO.P,J1,2,SWDIO/TMS*%
%TO.N,/SWDIO*%
X121418000Y-112390000D03*
%TO.P,J1,3,GND*%
%TO.N,GND*%
X125482000Y-111120000D03*
%TO.P,J1,4,SWCLK/TCK*%
%TO.N,/SWCLK*%
X121418000Y-111120000D03*
%TO.P,J1,5,GND*%
%TO.N,GND*%
X125482000Y-109850000D03*
%TO.P,J1,6,SWO/TDO*%
%TO.N,/SWO*%
X121418000Y-109850000D03*
%TO.P,J1,7,KEY*%
%TO.N,unconnected-(J1-KEY-Pad7)*%
X125482000Y-108580000D03*
%TO.P,J1,8,NC/TDI*%
%TO.N,unconnected-(J1-NC{slash}TDI-Pad8)*%
X121418000Y-108580000D03*
%TO.P,J1,9,GNDDetect*%
%TO.N,GND*%
X125482000Y-107310000D03*
%TO.P,J1,10,~{RESET}*%
%TO.N,/RESET*%
X121418000Y-107310000D03*
%TD*%
D21*
%TO.P,U1,1,P1.11*%
%TO.N,unconnected-(U1-P1.11-Pad1)*%
X103950000Y-117500000D03*
%TO.P,U1,2,P1.10*%
%TO.N,unconnected-(U1-P1.10-Pad2)*%
X105220000Y-117500000D03*
%TO.P,U1,3,P0.03/AIN1*%
%TO.N,Net-(U1-P0.03{slash}AIN1)*%
X106490000Y-117500000D03*
%TO.P,U1,4,P0.28/AIN4*%
%TO.N,Net-(U1-P0.28{slash}AIN4)*%
X107760000Y-117500000D03*
%TO.P,U1,5,GND*%
%TO.N,GND*%
X109030000Y-117500000D03*
%TO.P,U1,6,P1.13*%
%TO.N,unconnected-(U1-P1.13-Pad6)*%
X110300000Y-117500000D03*
%TO.P,U1,7,P0.02/AIN0*%
%TO.N,Net-(U1-P0.02{slash}AIN0)*%
X111570000Y-117500000D03*
%TO.P,U1,8,P0.29/AIN5*%
%TO.N,Net-(U1-P0.29{slash}AIN5)*%
X112840000Y-117500000D03*
D22*
%TO.P,U1,9,P0.31/AIN7*%
%TO.N,/RED_LED*%
X114107200Y-117500150D03*
D21*
%TO.P,U1,10,P0.30/AIN6*%
%TO.N,/WHITE_LED*%
X115380000Y-117500000D03*
D23*
%TO.P,U1,11,P0.00/XL1*%
%TO.N,/XL1*%
X117480000Y-115945000D03*
D24*
%TO.P,U1,12,P0.26*%
%TO.N,unconnected-(U1-P0.26-Pad12)*%
X115680000Y-115309750D03*
D23*
%TO.P,U1,13,P0.01/XL2*%
%TO.N,/XL2*%
X117480000Y-114675000D03*
D24*
%TO.P,U1,14,P0.06*%
%TO.N,unconnected-(U1-P0.06-Pad14)*%
X115680000Y-114039750D03*
D25*
%TO.P,U1,15,P0.05/AIN3*%
%TO.N,/SCL*%
X117480000Y-113377500D03*
D24*
%TO.P,U1,16,P0.08*%
%TO.N,unconnected-(U1-P0.08-Pad16)*%
X115680000Y-112769750D03*
D26*
%TO.P,U1,17,P1.09*%
%TO.N,/SDA*%
X117480000Y-112117500D03*
D24*
%TO.P,U1,18,P0.04/AIN2*%
%TO.N,unconnected-(U1-P0.04{slash}AIN2-Pad18)*%
X115680000Y-111499750D03*
D27*
%TO.P,U1,19,VDD*%
%TO.N,/nrf_VDD*%
X117480000Y-110857500D03*
D24*
%TO.P,U1,20,P0.12*%
%TO.N,unconnected-(U1-P0.12-Pad20)*%
X115680000Y-110229750D03*
D23*
%TO.P,U1,21,GND*%
%TO.N,GND*%
X117480000Y-109595000D03*
D24*
%TO.P,U1,22,P0.07*%
%TO.N,unconnected-(U1-P0.07-Pad22)*%
X115680000Y-108959750D03*
D23*
%TO.P,U1,23,VDDH*%
%TO.N,/nrf_VDD*%
X117480000Y-108325000D03*
D24*
%TO.P,U1,24,GND*%
%TO.N,GND*%
X115680000Y-107690000D03*
D23*
%TO.P,U1,25,DCCH*%
%TO.N,unconnected-(U1-DCCH-Pad25)*%
X117480000Y-107055000D03*
D21*
%TO.P,U1,26,P0.18/RESET*%
%TO.N,/RESET*%
X115380000Y-105500000D03*
%TO.P,U1,27,VBUS*%
%TO.N,unconnected-(U1-VBUS-Pad27)*%
X114110000Y-105500000D03*
D28*
%TO.P,U1,28,P0.15*%
%TO.N,unconnected-(U1-P0.15-Pad28)*%
X113475000Y-107300000D03*
D21*
%TO.P,U1,29,USB_D-*%
%TO.N,unconnected-(U1-USB_D--Pad29)*%
X112840000Y-105500000D03*
D28*
%TO.P,U1,30,P0.17*%
%TO.N,unconnected-(U1-P0.17-Pad30)*%
X112205000Y-107300000D03*
D21*
%TO.P,U1,31,USB_D+*%
%TO.N,unconnected-(U1-USB_D+-Pad31)*%
X111570000Y-105500000D03*
D28*
%TO.P,U1,32,P0.20*%
%TO.N,unconnected-(U1-P0.20-Pad32)*%
X110935000Y-107300000D03*
D21*
%TO.P,U1,33,P0.13*%
%TO.N,unconnected-(U1-P0.13-Pad33)*%
X110300000Y-105500000D03*
D28*
%TO.P,U1,34,P0.22*%
%TO.N,unconnected-(U1-P0.22-Pad34)*%
X109665000Y-107300000D03*
D21*
%TO.P,U1,35,P0.24*%
%TO.N,unconnected-(U1-P0.24-Pad35)*%
X109030000Y-105500000D03*
D28*
%TO.P,U1,36,P1.00*%
%TO.N,/SWO*%
X108395000Y-107300000D03*
D21*
%TO.P,U1,37,SWDIO*%
%TO.N,/SWDIO*%
X107760000Y-105500000D03*
D28*
%TO.P,U1,38,P1.02*%
%TO.N,unconnected-(U1-P1.02-Pad38)*%
X107125000Y-107300000D03*
D21*
%TO.P,U1,39,SWDCLK*%
%TO.N,/SWCLK*%
X106490000Y-105500000D03*
D28*
%TO.P,U1,40,P1.04*%
%TO.N,unconnected-(U1-P1.04-Pad40)*%
X105855000Y-107300000D03*
D22*
%TO.P,U1,41,P0.09/NFC1*%
%TO.N,unconnected-(U1-P0.09{slash}NFC1-Pad41)*%
X105222800Y-105499850D03*
D28*
%TO.P,U1,42,P1.06*%
%TO.N,unconnected-(U1-P1.06-Pad42)*%
X104590000Y-107300000D03*
D21*
%TO.P,U1,43,P0.10/NFC2*%
%TO.N,unconnected-(U1-P0.10{slash}NFC2-Pad43)*%
X103950000Y-105500000D03*
%TD*%
D29*
%TO.P,SW1,1,1*%
%TO.N,GND*%
X126490000Y-102025000D03*
%TO.P,SW1,2,2*%
X130990000Y-102025000D03*
%TO.P,SW1,3,3*%
%TO.N,/RESET*%
X126490000Y-104175000D03*
%TO.P,SW1,4,4*%
X130990000Y-104175000D03*
%TD*%
D13*
%TO.P,D1,1,K*%
%TO.N,Net-(D1-K)*%
X120107500Y-121100000D03*
%TO.P,D1,2,A*%
%TO.N,/RED_LED*%
X118532500Y-121100000D03*
%TD*%
D16*
%TO.P,TP8,1,1*%
%TO.N,/SWO*%
X113320000Y-101400000D03*
%TD*%
%TO.P,TP7,1,1*%
%TO.N,/SWDIO*%
X110780000Y-101400000D03*
%TD*%
D30*
%TO.N,/nrf_VDD*%
X134350000Y-111250000D03*
X134200000Y-115050000D03*
X131468329Y-116900000D03*
X127950000Y-109800000D03*
%TO.N,GND*%
X108750000Y-110250000D03*
X123240000Y-103600000D03*
X129740000Y-116350000D03*
X105240000Y-119100000D03*
X109490000Y-119100000D03*
X125990000Y-116850000D03*
X135200735Y-119549265D03*
X112250000Y-113750000D03*
X117914215Y-109250000D03*
X135750000Y-114750000D03*
%TO.N,/SCL*%
X128384098Y-111082628D03*
X126445735Y-114350000D03*
%TO.N,/SWDIO*%
X109320000Y-104400000D03*
X118555421Y-110862149D03*
%TO.N,/SWO*%
X119590000Y-109600000D03*
%TO.N,/SWCLK*%
X119170000Y-110350000D03*
X116820000Y-103650000D03*
%TD*%
D31*
%TO.N,Net-(D2-K)*%
X120107500Y-119350000D02*
X121995000Y-119350000D01*
%TO.N,/nrf_VDD*%
X117587500Y-110857500D02*
X119830000Y-113100000D01*
X133650000Y-118900000D02*
X133400000Y-118650000D01*
X117480000Y-110857500D02*
X117587500Y-110857500D01*
X136250000Y-120700000D02*
X136250000Y-119750000D01*
X132025000Y-110300000D02*
X133400000Y-110300000D01*
X135400000Y-118900000D02*
X133650000Y-118900000D01*
X116757500Y-110857500D02*
X117480000Y-110857500D01*
X131275000Y-117800000D02*
X131275000Y-117093329D01*
X126950000Y-112390000D02*
X127490000Y-111850000D01*
X135800000Y-121150000D02*
X136250000Y-120700000D01*
X131315000Y-115050000D02*
X134200000Y-115050000D01*
X127490000Y-111850000D02*
X127490000Y-110260000D01*
X125482000Y-112390000D02*
X126950000Y-112390000D01*
X119830000Y-113100000D02*
X124772000Y-113100000D01*
X131275000Y-117093329D02*
X131468329Y-116900000D01*
X135700000Y-121150000D02*
X135800000Y-121150000D01*
X117480000Y-108325000D02*
X117305000Y-108325000D01*
X133400000Y-110300000D02*
X134350000Y-111250000D01*
X127490000Y-110260000D02*
X127950000Y-109800000D01*
X116680000Y-108950000D02*
X116680000Y-110780000D01*
X133400000Y-118650000D02*
X133400000Y-115850000D01*
X133400000Y-115850000D02*
X134200000Y-115050000D01*
X117305000Y-108325000D02*
X116680000Y-108950000D01*
X136250000Y-119750000D02*
X135400000Y-118900000D01*
X116680000Y-110780000D02*
X116757500Y-110857500D01*
X124772000Y-113100000D02*
X125482000Y-112390000D01*
%TO.N,GND*%
X135850000Y-120241422D02*
X135850000Y-119915686D01*
X135741422Y-120350000D02*
X135850000Y-120241422D01*
X109030000Y-116220000D02*
X109250000Y-116000000D01*
X114250000Y-108920000D02*
X115480000Y-107690000D01*
X135850000Y-119915686D02*
X135483579Y-119549265D01*
X109030000Y-117500000D02*
X109030000Y-116220000D01*
X135483579Y-119549265D02*
X135200735Y-119549265D01*
X117569215Y-109595000D02*
X117914215Y-109250000D01*
X115480000Y-107690000D02*
X115680000Y-107690000D01*
X117480000Y-109595000D02*
X117569215Y-109595000D01*
X135700000Y-120350000D02*
X135741422Y-120350000D01*
X114250000Y-109250000D02*
X114250000Y-108920000D01*
%TO.N,/SCL*%
X118217500Y-113377500D02*
X117480000Y-113377500D01*
X128384098Y-111082628D02*
X128507372Y-111082628D01*
X134200000Y-121150000D02*
X133350000Y-120300000D01*
X128507372Y-111082628D02*
X131290000Y-108300000D01*
X133350000Y-120300000D02*
X133350000Y-119751472D01*
X133350000Y-119751472D02*
X132398528Y-118800000D01*
X126195735Y-114100000D02*
X118940000Y-114100000D01*
X132398528Y-118800000D02*
X130625000Y-118800000D01*
X126445735Y-114620735D02*
X129625000Y-117800000D01*
X130625000Y-118800000D02*
X129625000Y-117800000D01*
X126445735Y-114350000D02*
X126195735Y-114100000D01*
X134300000Y-121150000D02*
X134200000Y-121150000D01*
X118940000Y-114100000D02*
X118217500Y-113377500D01*
X126445735Y-114350000D02*
X126445735Y-114620735D01*
X131290000Y-108300000D02*
X132025000Y-108300000D01*
%TO.N,/SDA*%
X131015256Y-109300000D02*
X128045000Y-112270256D01*
X129665000Y-115050000D02*
X129495000Y-115050000D01*
X129950000Y-115050000D02*
X129665000Y-115050000D01*
X117692500Y-112117500D02*
X117480000Y-112117500D01*
X134258578Y-120350000D02*
X133750000Y-119841422D01*
X119175000Y-113600000D02*
X117692500Y-112117500D01*
X132700000Y-116550000D02*
X132450000Y-116300000D01*
X133750000Y-119841422D02*
X133750000Y-119585786D01*
X128045000Y-113600000D02*
X126010461Y-113600000D01*
X132450000Y-116300000D02*
X131200000Y-116300000D01*
X134300000Y-120350000D02*
X134258578Y-120350000D01*
X129495000Y-115050000D02*
X128045000Y-113600000D01*
X132700000Y-118535786D02*
X132700000Y-116550000D01*
X131200000Y-116300000D02*
X129950000Y-115050000D01*
X126010461Y-113600000D02*
X119175000Y-113600000D01*
X132025000Y-109300000D02*
X131015256Y-109300000D01*
X128045000Y-112270256D02*
X128045000Y-113600000D01*
X133750000Y-119585786D02*
X132700000Y-118535786D01*
%TO.N,/SWDIO*%
X109320000Y-104400000D02*
X108630000Y-104400000D01*
X118555421Y-110862149D02*
X120083272Y-112390000D01*
X108630000Y-104400000D02*
X107760000Y-105270000D01*
X107760000Y-105270000D02*
X107760000Y-105500000D01*
X120083272Y-112390000D02*
X121418000Y-112390000D01*
%TO.N,/SWO*%
X108395000Y-108245000D02*
X108395000Y-107300000D01*
X119320000Y-106300000D02*
X115470000Y-106300000D01*
X115470000Y-106300000D02*
X114175000Y-107595000D01*
X114175000Y-108200000D02*
X114075000Y-108300000D01*
X119490000Y-109500000D02*
X119490000Y-106470000D01*
X121168000Y-109600000D02*
X121418000Y-109850000D01*
X114075000Y-108300000D02*
X108450000Y-108300000D01*
X108450000Y-108300000D02*
X108395000Y-108245000D01*
X119590000Y-109600000D02*
X121168000Y-109600000D01*
X119490000Y-106470000D02*
X119320000Y-106300000D01*
X114175000Y-107595000D02*
X114175000Y-108200000D01*
X119590000Y-109600000D02*
X119490000Y-109500000D01*
%TO.N,/SWCLK*%
X106490000Y-105400000D02*
X107280000Y-104610000D01*
X119940000Y-111120000D02*
X121418000Y-111120000D01*
X106490000Y-105500000D02*
X106490000Y-105400000D01*
X119170000Y-110350000D02*
X119940000Y-111120000D01*
X108240000Y-103650000D02*
X107280000Y-104610000D01*
X108240000Y-101400000D02*
X108240000Y-103650000D01*
X116820000Y-103650000D02*
X108240000Y-103650000D01*
%TO.N,/RESET*%
X126490000Y-104175000D02*
X125405000Y-105260000D01*
X119618000Y-105510000D02*
X115390000Y-105510000D01*
X121418000Y-107310000D02*
X119618000Y-105510000D01*
X118808000Y-102650000D02*
X117110000Y-102650000D01*
X126490000Y-104175000D02*
X130990000Y-104175000D01*
X115390000Y-105510000D02*
X115380000Y-105500000D01*
X117110000Y-102650000D02*
X115860000Y-101400000D01*
X121418000Y-107310000D02*
X121418000Y-105260000D01*
X125405000Y-105260000D02*
X121418000Y-105260000D01*
X121418000Y-105260000D02*
X118808000Y-102650000D01*
%TO.N,/RED_LED*%
X116812500Y-121100000D02*
X118532500Y-121100000D01*
X114107200Y-118394700D02*
X116812500Y-121100000D01*
X114107200Y-117500150D02*
X114107200Y-118394700D01*
%TO.N,Net-(D1-K)*%
X120107500Y-121100000D02*
X121995000Y-121100000D01*
%TO.N,/WHITE_LED*%
X117230000Y-119350000D02*
X118532500Y-119350000D01*
X115380000Y-117500000D02*
X117230000Y-119350000D01*
%TO.N,/XL1*%
X117480000Y-115945000D02*
X117665000Y-115945000D01*
X119320000Y-117600000D02*
X120590000Y-117600000D01*
X120590000Y-117600000D02*
X121090000Y-117100000D01*
X117665000Y-115945000D02*
X119320000Y-117600000D01*
%TO.N,/XL2*%
X119320000Y-115100000D02*
X120450000Y-115100000D01*
X118895000Y-114675000D02*
X119320000Y-115100000D01*
X120950000Y-115600000D02*
X121090000Y-115600000D01*
X117480000Y-114675000D02*
X118895000Y-114675000D01*
X120450000Y-115100000D02*
X120950000Y-115600000D01*
%TO.N,Net-(U1-P0.03{slash}AIN1)*%
X106490000Y-120910000D02*
X105700000Y-121700000D01*
X106490000Y-117500000D02*
X106490000Y-120910000D01*
%TO.N,Net-(U1-P0.28{slash}AIN4)*%
X107760000Y-117500000D02*
X107760000Y-121220000D01*
X107760000Y-121220000D02*
X108240000Y-121700000D01*
%TO.N,Net-(U1-P0.02{slash}AIN0)*%
X111570000Y-120910000D02*
X110780000Y-121700000D01*
X111570000Y-117500000D02*
X111570000Y-120910000D01*
%TO.N,Net-(U1-P0.29{slash}AIN5)*%
X112840000Y-117500000D02*
X112840000Y-121220000D01*
X112840000Y-121220000D02*
X113320000Y-121700000D01*
%TD*%
%TA.AperFunction,Conductor*%
%TO.N,GND*%
G36*
X104628329Y-118462691D02*
G01*
X104712517Y-118494091D01*
X104772127Y-118500500D01*
X105667872Y-118500499D01*
X105727483Y-118494091D01*
X105727485Y-118494090D01*
X105727487Y-118494090D01*
X105735031Y-118492308D01*
X105735694Y-118495115D01*
X105791807Y-118491078D01*
X105853144Y-118524537D01*
X105886655Y-118585846D01*
X105889500Y-118612255D01*
X105889500Y-120086500D01*
X105869815Y-120153539D01*
X105817011Y-120199294D01*
X105765500Y-120210500D01*
X105584863Y-120210500D01*
X105579506Y-120211394D01*
X105357725Y-120248402D01*
X105139938Y-120323169D01*
X105139930Y-120323172D01*
X104937408Y-120432772D01*
X104755694Y-120574206D01*
X104755689Y-120574211D01*
X104599728Y-120743629D01*
X104473782Y-120936405D01*
X104381282Y-121147285D01*
X104324753Y-121370515D01*
X104305738Y-121599994D01*
X104305738Y-121600005D01*
X104324753Y-121829484D01*
X104381282Y-122052714D01*
X104473782Y-122263594D01*
X104502584Y-122307679D01*
X104522772Y-122374569D01*
X104503591Y-122441754D01*
X104451132Y-122487904D01*
X104398775Y-122499500D01*
X103624000Y-122499500D01*
X103556961Y-122479815D01*
X103511206Y-122427011D01*
X103500000Y-122375500D01*
X103500000Y-121701674D01*
X103519685Y-121634635D01*
X103536319Y-121613993D01*
X103569792Y-121580520D01*
X103659773Y-121490539D01*
X103800448Y-121296916D01*
X103909103Y-121083670D01*
X103983061Y-120856051D01*
X104008110Y-120697897D01*
X104020500Y-120619671D01*
X104020500Y-120380328D01*
X103991938Y-120200000D01*
X103983061Y-120143949D01*
X103909103Y-119916330D01*
X103909101Y-119916327D01*
X103909101Y-119916325D01*
X103827513Y-119756202D01*
X103800448Y-119703084D01*
X103729697Y-119605703D01*
X103659778Y-119509467D01*
X103659774Y-119509462D01*
X103536319Y-119386007D01*
X103502834Y-119324684D01*
X103500000Y-119298326D01*
X103500000Y-118624499D01*
X103519685Y-118557460D01*
X103572489Y-118511705D01*
X103623996Y-118500499D01*
X104397872Y-118500499D01*
X104457483Y-118494091D01*
X104541668Y-118462691D01*
X104611356Y-118457708D01*
X104628329Y-118462691D01*
G37*
%TD.AperFunction*%
%TA.AperFunction,Conductor*%
G36*
X125719067Y-114720185D02*
G01*
X125757022Y-114758528D01*
X125784505Y-114802267D01*
X125815919Y-114852262D01*
X125943473Y-114979816D01*
X125964219Y-114992851D01*
X125985927Y-115010163D01*
X126084084Y-115108320D01*
X126084090Y-115108325D01*
X128688181Y-117712416D01*
X128721666Y-117773739D01*
X128724500Y-117800097D01*
X128724500Y-118131613D01*
X128730913Y-118202192D01*
X128730913Y-118202194D01*
X128730914Y-118202196D01*
X128781522Y-118364606D01*
X128862723Y-118498929D01*
X128869530Y-118510188D01*
X128989811Y-118630469D01*
X128989813Y-118630470D01*
X128989815Y-118630472D01*
X129135394Y-118718478D01*
X129297804Y-118769086D01*
X129368384Y-118775500D01*
X129699902Y-118775500D01*
X129766941Y-118795185D01*
X129787583Y-118811819D01*
X130256284Y-119280520D01*
X130256286Y-119280521D01*
X130256290Y-119280524D01*
X130393209Y-119359573D01*
X130393216Y-119359577D01*
X130545943Y-119400501D01*
X130545945Y-119400501D01*
X130711654Y-119400501D01*
X130711670Y-119400500D01*
X131476896Y-119400500D01*
X131543935Y-119420185D01*
X131589690Y-119472989D01*
X131599634Y-119542147D01*
X131570609Y-119605703D01*
X131545787Y-119627602D01*
X131503458Y-119655885D01*
X131503454Y-119655888D01*
X131405888Y-119753454D01*
X131405885Y-119753458D01*
X131329228Y-119868182D01*
X131329221Y-119868195D01*
X131276421Y-119995667D01*
X131276418Y-119995677D01*
X131249500Y-120131004D01*
X131249500Y-122375500D01*
X131229815Y-122442539D01*
X131177011Y-122488294D01*
X131125500Y-122499500D01*
X114621225Y-122499500D01*
X114554186Y-122479815D01*
X114508431Y-122427011D01*
X114498487Y-122357853D01*
X114517416Y-122307679D01*
X114529608Y-122289016D01*
X114546217Y-122263595D01*
X114638717Y-122052716D01*
X114695246Y-121829488D01*
X114709309Y-121659773D01*
X114714262Y-121600005D01*
X114714262Y-121599994D01*
X114699415Y-121420821D01*
X114695246Y-121370512D01*
X114638717Y-121147284D01*
X114546217Y-120936405D01*
X114521980Y-120899308D01*
X114420271Y-120743629D01*
X114378086Y-120697804D01*
X114264308Y-120574208D01*
X114152055Y-120486838D01*
X114082591Y-120432772D01*
X113880069Y-120323172D01*
X113880061Y-120323169D01*
X113662274Y-120248402D01*
X113544089Y-120228680D01*
X113481204Y-120198229D01*
X113444765Y-120138614D01*
X113440500Y-120106371D01*
X113440500Y-118876598D01*
X113460185Y-118809559D01*
X113512989Y-118763804D01*
X113582147Y-118753860D01*
X113645703Y-118782885D01*
X113652181Y-118788917D01*
X113745549Y-118882285D01*
X113745555Y-118882290D01*
X116327639Y-121464374D01*
X116327649Y-121464385D01*
X116331979Y-121468715D01*
X116331980Y-121468716D01*
X116443784Y-121580520D01*
X116517215Y-121622915D01*
X116580715Y-121659577D01*
X116733443Y-121700501D01*
X116733446Y-121700501D01*
X116899153Y-121700501D01*
X116899169Y-121700500D01*
X117611815Y-121700500D01*
X117678854Y-121720185D01*
X117717351Y-121759400D01*
X117745000Y-121804225D01*
X117745720Y-121805392D01*
X117864608Y-121924280D01*
X117864612Y-121924283D01*
X118007704Y-122012544D01*
X118007707Y-122012545D01*
X118007713Y-122012549D01*
X118167315Y-122065436D01*
X118265826Y-122075500D01*
X118265831Y-122075500D01*
X118799169Y-122075500D01*
X118799174Y-122075500D01*
X118897685Y-122065436D01*
X119057287Y-122012549D01*
X119200391Y-121924281D01*
X119232319Y-121892353D01*
X119293642Y-121858868D01*
X119363334Y-121863852D01*
X119407681Y-121892353D01*
X119439608Y-121924280D01*
X119439612Y-121924283D01*
X119582704Y-122012544D01*
X119582707Y-122012545D01*
X119582713Y-122012549D01*
X119742315Y-122065436D01*
X119840826Y-122075500D01*
X119840831Y-122075500D01*
X120374169Y-122075500D01*
X120374174Y-122075500D01*
X120472685Y-122065436D01*
X120632287Y-122012549D01*
X120775391Y-121924281D01*
X120894281Y-121805391D01*
X120922648Y-121759401D01*
X120974594Y-121712679D01*
X121028185Y-121700500D01*
X121103285Y-121700500D01*
X121170324Y-121720185D01*
X121209401Y-121760349D01*
X121233314Y-121799906D01*
X121239530Y-121810188D01*
X121359811Y-121930469D01*
X121359813Y-121930470D01*
X121359815Y-121930472D01*
X121505394Y-122018478D01*
X121667804Y-122069086D01*
X121738384Y-122075500D01*
X121738387Y-122075500D01*
X122251613Y-122075500D01*
X122251616Y-122075500D01*
X122322196Y-122069086D01*
X122484606Y-122018478D01*
X122630185Y-121930472D01*
X122732673Y-121827983D01*
X122793994Y-121794499D01*
X122863685Y-121799483D01*
X122908034Y-121827984D01*
X123010122Y-121930072D01*
X123155604Y-122018019D01*
X123155603Y-122018019D01*
X123317894Y-122068590D01*
X123317893Y-122068590D01*
X123388408Y-122074998D01*
X123388426Y-122074999D01*
X123895000Y-122074999D01*
X123901581Y-122074999D01*
X123972102Y-122068591D01*
X123972107Y-122068590D01*
X124134396Y-122018018D01*
X124279877Y-121930072D01*
X124400072Y-121809877D01*
X124488019Y-121664395D01*
X124538590Y-121502106D01*
X124545000Y-121431572D01*
X124545000Y-121350000D01*
X123895000Y-121350000D01*
X123895000Y-122074999D01*
X123388426Y-122074999D01*
X123394999Y-122074998D01*
X123395000Y-122074998D01*
X123395000Y-120850000D01*
X123895000Y-120850000D01*
X124544999Y-120850000D01*
X124544999Y-120768417D01*
X124538591Y-120697897D01*
X124538590Y-120697892D01*
X124488018Y-120535603D01*
X124400072Y-120390122D01*
X124322631Y-120312681D01*
X124289146Y-120251358D01*
X124294130Y-120181666D01*
X124322631Y-120137319D01*
X124400071Y-120059878D01*
X124400072Y-120059877D01*
X124488019Y-119914395D01*
X124538590Y-119752106D01*
X124545000Y-119681572D01*
X124545000Y-119600000D01*
X123895000Y-119600000D01*
X123895000Y-120850000D01*
X123395000Y-120850000D01*
X123395000Y-119100000D01*
X123895000Y-119100000D01*
X124544999Y-119100000D01*
X124544999Y-119018417D01*
X124538591Y-118947897D01*
X124538590Y-118947892D01*
X124488018Y-118785603D01*
X124400072Y-118640122D01*
X124279877Y-118519927D01*
X124134395Y-118431980D01*
X124134396Y-118431980D01*
X123972105Y-118381409D01*
X123972106Y-118381409D01*
X123901572Y-118375000D01*
X123895000Y-118375000D01*
X123895000Y-119100000D01*
X123395000Y-119100000D01*
X123395000Y-118375000D01*
X123394999Y-118374999D01*
X123388436Y-118375000D01*
X123388417Y-118375001D01*
X123317897Y-118381408D01*
X123317892Y-118381409D01*
X123155603Y-118431981D01*
X123010122Y-118519927D01*
X123010121Y-118519928D01*
X122908035Y-118622015D01*
X122846712Y-118655500D01*
X122777020Y-118650516D01*
X122732673Y-118622015D01*
X122630188Y-118519530D01*
X122598705Y-118500498D01*
X122484606Y-118431522D01*
X122322196Y-118380914D01*
X122322194Y-118380913D01*
X122322192Y-118380913D01*
X122272778Y-118376423D01*
X122251616Y-118374500D01*
X121738384Y-118374500D01*
X121719145Y-118376248D01*
X121667807Y-118380913D01*
X121505393Y-118431522D01*
X121359811Y-118519530D01*
X121239530Y-118639811D01*
X121209402Y-118689650D01*
X121157874Y-118736838D01*
X121103285Y-118749500D01*
X121028185Y-118749500D01*
X120961146Y-118729815D01*
X120922648Y-118690599D01*
X120894281Y-118644609D01*
X120775391Y-118525719D01*
X120775387Y-118525716D01*
X120715732Y-118488920D01*
X120669007Y-118436972D01*
X120657786Y-118368010D01*
X120664647Y-118340049D01*
X120699645Y-118246213D01*
X120741516Y-118190280D01*
X120783731Y-118169773D01*
X120821785Y-118159577D01*
X120871904Y-118130639D01*
X120958716Y-118080520D01*
X121070520Y-117968716D01*
X121070521Y-117968714D01*
X121092419Y-117946816D01*
X121153743Y-117913333D01*
X121180097Y-117910500D01*
X121294682Y-117910500D01*
X121294690Y-117910500D01*
X121330993Y-117907643D01*
X121330995Y-117907642D01*
X121330997Y-117907642D01*
X121371975Y-117895736D01*
X121486395Y-117862494D01*
X121507369Y-117850089D01*
X121575088Y-117832906D01*
X121633613Y-117850090D01*
X121653803Y-117862031D01*
X121800000Y-117904504D01*
X121800000Y-117904503D01*
X122300000Y-117904503D01*
X122446195Y-117862031D01*
X122585374Y-117779721D01*
X122585383Y-117779714D01*
X122699714Y-117665383D01*
X122699721Y-117665374D01*
X122782031Y-117526195D01*
X122782033Y-117526190D01*
X122827144Y-117370918D01*
X122827145Y-117370912D01*
X122828790Y-117350000D01*
X122300000Y-117350000D01*
X122300000Y-117904503D01*
X121800000Y-117904503D01*
X121800000Y-117598352D01*
X121817267Y-117535233D01*
X121822494Y-117526395D01*
X121867643Y-117370993D01*
X121870500Y-117334690D01*
X121870500Y-116865310D01*
X121869295Y-116850000D01*
X122300000Y-116850000D01*
X122828790Y-116850000D01*
X122827145Y-116829089D01*
X122782031Y-116673804D01*
X122699721Y-116534625D01*
X122699714Y-116534616D01*
X122602779Y-116437681D01*
X122569294Y-116376358D01*
X122574278Y-116306666D01*
X122602779Y-116262319D01*
X122699714Y-116165383D01*
X122699721Y-116165374D01*
X122782031Y-116026195D01*
X122782033Y-116026190D01*
X122827144Y-115870918D01*
X122827145Y-115870912D01*
X122828790Y-115850000D01*
X122300000Y-115850000D01*
X122300000Y-116850000D01*
X121869295Y-116850000D01*
X121867643Y-116829007D01*
X121866612Y-116825459D01*
X121822495Y-116673608D01*
X121822492Y-116673600D01*
X121817266Y-116664763D01*
X121800000Y-116601645D01*
X121800000Y-116098352D01*
X121817267Y-116035233D01*
X121822494Y-116026395D01*
X121822797Y-116025354D01*
X121867642Y-115870997D01*
X121867643Y-115870991D01*
X121867649Y-115870912D01*
X121870500Y-115834690D01*
X121870500Y-115474000D01*
X121890185Y-115406961D01*
X121942989Y-115361206D01*
X121994500Y-115350000D01*
X122828790Y-115350000D01*
X122827145Y-115329089D01*
X122782031Y-115173804D01*
X122699721Y-115034625D01*
X122699714Y-115034616D01*
X122579862Y-114914764D01*
X122581475Y-114913150D01*
X122547306Y-114865837D01*
X122543516Y-114796070D01*
X122578047Y-114735329D01*
X122639935Y-114702900D01*
X122664213Y-114700500D01*
X125652028Y-114700500D01*
X125719067Y-114720185D01*
G37*
%TD.AperFunction*%
%TA.AperFunction,Conductor*%
G36*
X109707608Y-118462422D02*
G01*
X109792517Y-118494091D01*
X109852127Y-118500500D01*
X110747872Y-118500499D01*
X110807483Y-118494091D01*
X110807485Y-118494090D01*
X110807487Y-118494090D01*
X110815031Y-118492308D01*
X110815694Y-118495115D01*
X110871807Y-118491078D01*
X110933144Y-118524537D01*
X110966655Y-118585846D01*
X110969500Y-118612255D01*
X110969500Y-120086500D01*
X110949815Y-120153539D01*
X110897011Y-120199294D01*
X110845500Y-120210500D01*
X110664863Y-120210500D01*
X110659506Y-120211394D01*
X110437725Y-120248402D01*
X110219938Y-120323169D01*
X110219930Y-120323172D01*
X110017408Y-120432772D01*
X109835694Y-120574206D01*
X109835689Y-120574211D01*
X109679727Y-120743630D01*
X109613808Y-120844528D01*
X109560662Y-120889884D01*
X109491431Y-120899308D01*
X109428095Y-120869806D01*
X109406192Y-120844528D01*
X109340272Y-120743630D01*
X109298086Y-120697804D01*
X109184308Y-120574208D01*
X109072055Y-120486838D01*
X109002591Y-120432772D01*
X108800069Y-120323172D01*
X108800061Y-120323169D01*
X108582274Y-120248402D01*
X108464089Y-120228680D01*
X108401204Y-120198229D01*
X108364765Y-120138614D01*
X108360500Y-120106371D01*
X108360500Y-118611723D01*
X108380185Y-118544684D01*
X108432989Y-118498929D01*
X108502147Y-118488985D01*
X108514962Y-118492257D01*
X108515067Y-118491813D01*
X108522622Y-118493597D01*
X108582155Y-118499999D01*
X108582172Y-118500000D01*
X109477828Y-118500000D01*
X109477844Y-118499999D01*
X109537374Y-118493598D01*
X109537377Y-118493597D01*
X109620950Y-118462426D01*
X109690641Y-118457441D01*
X109707608Y-118462422D01*
G37*
%TD.AperFunction*%
%TA.AperFunction,Conductor*%
G36*
X135166942Y-119520185D02*
G01*
X135187584Y-119536819D01*
X135220813Y-119570048D01*
X135254298Y-119631371D01*
X135249314Y-119701063D01*
X135207444Y-119756995D01*
X135092809Y-119842812D01*
X135088038Y-119847584D01*
X135026715Y-119881069D01*
X134957023Y-119876085D01*
X134912676Y-119847584D01*
X134907544Y-119842452D01*
X134792335Y-119756206D01*
X134792328Y-119756202D01*
X134750715Y-119740682D01*
X134694781Y-119698811D01*
X134670364Y-119633347D01*
X134685215Y-119565074D01*
X134734620Y-119515668D01*
X134794048Y-119500500D01*
X135099903Y-119500500D01*
X135166942Y-119520185D01*
G37*
%TD.AperFunction*%
%TA.AperFunction,Conductor*%
G36*
X103705203Y-108075806D02*
G01*
X103740182Y-108126186D01*
X103746202Y-108142328D01*
X103746206Y-108142335D01*
X103832452Y-108257544D01*
X103832455Y-108257547D01*
X103947664Y-108343793D01*
X103947671Y-108343797D01*
X104082517Y-108394091D01*
X104082516Y-108394091D01*
X104089444Y-108394835D01*
X104142127Y-108400500D01*
X105037872Y-108400499D01*
X105097483Y-108394091D01*
X105179168Y-108363623D01*
X105248857Y-108358640D01*
X105265824Y-108363621D01*
X105347517Y-108394091D01*
X105407127Y-108400500D01*
X106302872Y-108400499D01*
X106362483Y-108394091D01*
X106446668Y-108362691D01*
X106516356Y-108357708D01*
X106533329Y-108362691D01*
X106617517Y-108394091D01*
X106677127Y-108400500D01*
X107572872Y-108400499D01*
X107632483Y-108394091D01*
X107669035Y-108380457D01*
X107738724Y-108375472D01*
X107800048Y-108408956D01*
X107832142Y-108464542D01*
X107835422Y-108476784D01*
X107835423Y-108476787D01*
X107848538Y-108499501D01*
X107848539Y-108499503D01*
X107914475Y-108613709D01*
X107914479Y-108613714D01*
X107914480Y-108613716D01*
X107969480Y-108668716D01*
X108000264Y-108699500D01*
X108081284Y-108780520D01*
X108081286Y-108780521D01*
X108081290Y-108780524D01*
X108218209Y-108859573D01*
X108218212Y-108859575D01*
X108218216Y-108859577D01*
X108370943Y-108900501D01*
X108370945Y-108900501D01*
X108536654Y-108900501D01*
X108536670Y-108900500D01*
X113988331Y-108900500D01*
X113988347Y-108900501D01*
X113995943Y-108900501D01*
X114154054Y-108900501D01*
X114154057Y-108900501D01*
X114306785Y-108859577D01*
X114376233Y-108819481D01*
X114393499Y-108809512D01*
X114461395Y-108793038D01*
X114527423Y-108815888D01*
X114570616Y-108870807D01*
X114579500Y-108916898D01*
X114579500Y-109407620D01*
X114579501Y-109407626D01*
X114585908Y-109467232D01*
X114617307Y-109551416D01*
X114622291Y-109621108D01*
X114617307Y-109638081D01*
X114585909Y-109722264D01*
X114585908Y-109722266D01*
X114579501Y-109781866D01*
X114579500Y-109781885D01*
X114579500Y-110677620D01*
X114579501Y-110677626D01*
X114585908Y-110737232D01*
X114589827Y-110747738D01*
X114611219Y-110805095D01*
X114617307Y-110821416D01*
X114622291Y-110891108D01*
X114617307Y-110908081D01*
X114585909Y-110992264D01*
X114585908Y-110992266D01*
X114579501Y-111051866D01*
X114579500Y-111051885D01*
X114579500Y-111947620D01*
X114579501Y-111947626D01*
X114585908Y-112007232D01*
X114617307Y-112091416D01*
X114622291Y-112161108D01*
X114617307Y-112178081D01*
X114585909Y-112262264D01*
X114585908Y-112262266D01*
X114579501Y-112321866D01*
X114579500Y-112321885D01*
X114579500Y-113217620D01*
X114579501Y-113217626D01*
X114585908Y-113277232D01*
X114617307Y-113361416D01*
X114622291Y-113431108D01*
X114617307Y-113448081D01*
X114585909Y-113532264D01*
X114585908Y-113532266D01*
X114579501Y-113591866D01*
X114579500Y-113591885D01*
X114579500Y-114487620D01*
X114579501Y-114487626D01*
X114585908Y-114547232D01*
X114617307Y-114631416D01*
X114622291Y-114701108D01*
X114617307Y-114718081D01*
X114585909Y-114802264D01*
X114585908Y-114802266D01*
X114579501Y-114861866D01*
X114579500Y-114861885D01*
X114579500Y-115757620D01*
X114579501Y-115757626D01*
X114585908Y-115817233D01*
X114636202Y-115952078D01*
X114636206Y-115952085D01*
X114722452Y-116067294D01*
X114722455Y-116067297D01*
X114837664Y-116153543D01*
X114837671Y-116153547D01*
X114972517Y-116203841D01*
X114972516Y-116203841D01*
X114979444Y-116204585D01*
X115032127Y-116210250D01*
X116327872Y-116210249D01*
X116342242Y-116208704D01*
X116411001Y-116221107D01*
X116462140Y-116268716D01*
X116479500Y-116331991D01*
X116479500Y-116392869D01*
X116479501Y-116392876D01*
X116485908Y-116452483D01*
X116536202Y-116587328D01*
X116536206Y-116587335D01*
X116622452Y-116702544D01*
X116622455Y-116702547D01*
X116737664Y-116788793D01*
X116737671Y-116788797D01*
X116872517Y-116839091D01*
X116872516Y-116839091D01*
X116879444Y-116839835D01*
X116932127Y-116845500D01*
X117664902Y-116845499D01*
X117731941Y-116865183D01*
X117752583Y-116881818D01*
X117883181Y-117012416D01*
X117916666Y-117073739D01*
X117919500Y-117100097D01*
X117919500Y-118147870D01*
X117919501Y-118147876D01*
X117925908Y-118207483D01*
X117975352Y-118340049D01*
X117980336Y-118409741D01*
X117946850Y-118471064D01*
X117924268Y-118488920D01*
X117864609Y-118525718D01*
X117745720Y-118644607D01*
X117745719Y-118644609D01*
X117717351Y-118690598D01*
X117665406Y-118737321D01*
X117611815Y-118749500D01*
X117530097Y-118749500D01*
X117463058Y-118729815D01*
X117442416Y-118713181D01*
X116316818Y-117587583D01*
X116283333Y-117526260D01*
X116280499Y-117499902D01*
X116280499Y-116952129D01*
X116280498Y-116952123D01*
X116280496Y-116952105D01*
X116274091Y-116892517D01*
X116263943Y-116865310D01*
X116223797Y-116757671D01*
X116223793Y-116757664D01*
X116137547Y-116642455D01*
X116137544Y-116642452D01*
X116022335Y-116556206D01*
X116022328Y-116556202D01*
X115887482Y-116505908D01*
X115887483Y-116505908D01*
X115827883Y-116499501D01*
X115827881Y-116499500D01*
X115827873Y-116499500D01*
X115827864Y-116499500D01*
X114932129Y-116499500D01*
X114932123Y-116499501D01*
X114872516Y-116505908D01*
X114786529Y-116537979D01*
X114716837Y-116542963D01*
X114699864Y-116537979D01*
X114614682Y-116506208D01*
X114614683Y-116506208D01*
X114555083Y-116499801D01*
X114555081Y-116499800D01*
X114555073Y-116499800D01*
X114555064Y-116499800D01*
X113659329Y-116499800D01*
X113659323Y-116499801D01*
X113599716Y-116506208D01*
X113517334Y-116536935D01*
X113447643Y-116541919D01*
X113430669Y-116536935D01*
X113347482Y-116505908D01*
X113347483Y-116505908D01*
X113287883Y-116499501D01*
X113287881Y-116499500D01*
X113287873Y-116499500D01*
X113287864Y-116499500D01*
X112392129Y-116499500D01*
X112392123Y-116499501D01*
X112332516Y-116505908D01*
X112248332Y-116537307D01*
X112178641Y-116542291D01*
X112161667Y-116537307D01*
X112077482Y-116505908D01*
X112077483Y-116505908D01*
X112017883Y-116499501D01*
X112017881Y-116499500D01*
X112017873Y-116499500D01*
X112017864Y-116499500D01*
X111122129Y-116499500D01*
X111122123Y-116499501D01*
X111062516Y-116505908D01*
X110978332Y-116537307D01*
X110908641Y-116542291D01*
X110891667Y-116537307D01*
X110807482Y-116505908D01*
X110807483Y-116505908D01*
X110747883Y-116499501D01*
X110747881Y-116499500D01*
X110747873Y-116499500D01*
X110747864Y-116499500D01*
X109852129Y-116499500D01*
X109852123Y-116499501D01*
X109792514Y-116505909D01*
X109707617Y-116537573D01*
X109637925Y-116542557D01*
X109620953Y-116537573D01*
X109537382Y-116506403D01*
X109537372Y-116506401D01*
X109477844Y-116500000D01*
X108582155Y-116500000D01*
X108522627Y-116506401D01*
X108522616Y-116506404D01*
X108439046Y-116537573D01*
X108369354Y-116542557D01*
X108352382Y-116537573D01*
X108267485Y-116505909D01*
X108267483Y-116505908D01*
X108207883Y-116499501D01*
X108207881Y-116499500D01*
X108207873Y-116499500D01*
X108207864Y-116499500D01*
X107312129Y-116499500D01*
X107312123Y-116499501D01*
X107252516Y-116505908D01*
X107168332Y-116537307D01*
X107098641Y-116542291D01*
X107081667Y-116537307D01*
X106997482Y-116505908D01*
X106997483Y-116505908D01*
X106937883Y-116499501D01*
X106937881Y-116499500D01*
X106937873Y-116499500D01*
X106937864Y-116499500D01*
X106042129Y-116499500D01*
X106042123Y-116499501D01*
X105982516Y-116505908D01*
X105898332Y-116537307D01*
X105828641Y-116542291D01*
X105811667Y-116537307D01*
X105727482Y-116505908D01*
X105727483Y-116505908D01*
X105667883Y-116499501D01*
X105667881Y-116499500D01*
X105667873Y-116499500D01*
X105667864Y-116499500D01*
X104772129Y-116499500D01*
X104772123Y-116499501D01*
X104712516Y-116505908D01*
X104628332Y-116537307D01*
X104558641Y-116542291D01*
X104541667Y-116537307D01*
X104457482Y-116505908D01*
X104457483Y-116505908D01*
X104397883Y-116499501D01*
X104397881Y-116499500D01*
X104397873Y-116499500D01*
X104397865Y-116499500D01*
X103624000Y-116499500D01*
X103556961Y-116479815D01*
X103511206Y-116427011D01*
X103500000Y-116375500D01*
X103500000Y-108169519D01*
X103519685Y-108102480D01*
X103572489Y-108056725D01*
X103641647Y-108046781D01*
X103705203Y-108075806D01*
G37*
%TD.AperFunction*%
%TA.AperFunction,Conductor*%
G36*
X127811942Y-114220185D02*
G01*
X127832584Y-114236819D01*
X128728181Y-115132416D01*
X128761666Y-115193739D01*
X128764500Y-115220097D01*
X128764500Y-115381613D01*
X128770913Y-115452192D01*
X128770913Y-115452194D01*
X128770914Y-115452196D01*
X128821522Y-115614606D01*
X128907977Y-115757620D01*
X128909530Y-115760188D01*
X129029811Y-115880469D01*
X129029813Y-115880470D01*
X129029815Y-115880472D01*
X129175394Y-115968478D01*
X129337804Y-116019086D01*
X129408384Y-116025500D01*
X129408387Y-116025500D01*
X129921613Y-116025500D01*
X129921616Y-116025500D01*
X129992196Y-116019086D01*
X129992197Y-116019085D01*
X129998730Y-116018492D01*
X129998844Y-116019750D01*
X130061539Y-116025354D01*
X130103833Y-116053068D01*
X130650955Y-116600190D01*
X130684440Y-116661513D01*
X130684168Y-116715453D01*
X130682960Y-116720747D01*
X130661984Y-116906919D01*
X130659412Y-116906629D01*
X130643079Y-116962255D01*
X130626445Y-116982897D01*
X130537681Y-117071661D01*
X130476358Y-117105146D01*
X130406666Y-117100162D01*
X130362319Y-117071661D01*
X130260188Y-116969530D01*
X130231403Y-116952129D01*
X130114606Y-116881522D01*
X129952196Y-116830914D01*
X129952194Y-116830913D01*
X129952192Y-116830913D01*
X129902778Y-116826423D01*
X129881616Y-116824500D01*
X129881613Y-116824500D01*
X129550098Y-116824500D01*
X129483059Y-116804815D01*
X129462417Y-116788181D01*
X127270532Y-114596297D01*
X127237047Y-114534974D01*
X127234993Y-114494732D01*
X127251300Y-114350002D01*
X127251300Y-114350001D01*
X127249991Y-114338386D01*
X127262044Y-114269564D01*
X127309392Y-114218184D01*
X127373211Y-114200500D01*
X127744903Y-114200500D01*
X127811942Y-114220185D01*
G37*
%TD.AperFunction*%
%TA.AperFunction,Conductor*%
G36*
X132869100Y-100520185D02*
G01*
X132914855Y-100572989D01*
X132924799Y-100642147D01*
X132895774Y-100705703D01*
X132886945Y-100714892D01*
X132743001Y-100850064D01*
X132550058Y-101083291D01*
X132387880Y-101338844D01*
X132259000Y-101612728D01*
X132231931Y-101696038D01*
X132192493Y-101753714D01*
X132128135Y-101780912D01*
X132059288Y-101768997D01*
X132007813Y-101721753D01*
X131990000Y-101657720D01*
X131990000Y-101627172D01*
X131989999Y-101627155D01*
X131983598Y-101567627D01*
X131983596Y-101567620D01*
X131933354Y-101432913D01*
X131933350Y-101432906D01*
X131847190Y-101317812D01*
X131847187Y-101317809D01*
X131732093Y-101231649D01*
X131732086Y-101231645D01*
X131597379Y-101181403D01*
X131597372Y-101181401D01*
X131537844Y-101175000D01*
X131240000Y-101175000D01*
X131240000Y-102875000D01*
X131537828Y-102875000D01*
X131537844Y-102874999D01*
X131597372Y-102868598D01*
X131597379Y-102868596D01*
X131732086Y-102818354D01*
X131732093Y-102818350D01*
X131847187Y-102732190D01*
X131847188Y-102732189D01*
X131882543Y-102684961D01*
X131938476Y-102643089D01*
X132008167Y-102638105D01*
X132069491Y-102671589D01*
X132102976Y-102732912D01*
X132105565Y-102751483D01*
X132108748Y-102802075D01*
X132108749Y-102802081D01*
X132165468Y-103099410D01*
X132240687Y-103330909D01*
X132259001Y-103387274D01*
X132387877Y-103661150D01*
X132387879Y-103661153D01*
X132387880Y-103661155D01*
X132550058Y-103916708D01*
X132550061Y-103916712D01*
X132550062Y-103916713D01*
X132742999Y-104149934D01*
X132881310Y-104279816D01*
X132963643Y-104357132D01*
X132963653Y-104357140D01*
X133208508Y-104535038D01*
X133208513Y-104535040D01*
X133208520Y-104535046D01*
X133473763Y-104680865D01*
X133473768Y-104680867D01*
X133473770Y-104680868D01*
X133473771Y-104680869D01*
X133755186Y-104792289D01*
X133755189Y-104792290D01*
X134048359Y-104867563D01*
X134048363Y-104867564D01*
X134111360Y-104875522D01*
X134348647Y-104905499D01*
X134348656Y-104905499D01*
X134348659Y-104905500D01*
X134348661Y-104905500D01*
X134651339Y-104905500D01*
X134651341Y-104905500D01*
X134651344Y-104905499D01*
X134651352Y-104905499D01*
X134833073Y-104882542D01*
X134951637Y-104867564D01*
X135244810Y-104792290D01*
X135287217Y-104775500D01*
X135526228Y-104680869D01*
X135526229Y-104680868D01*
X135526227Y-104680868D01*
X135526237Y-104680865D01*
X135791480Y-104535046D01*
X136036355Y-104357134D01*
X136257001Y-104149934D01*
X136279956Y-104122185D01*
X136337855Y-104083078D01*
X136407707Y-104081482D01*
X136467333Y-104117903D01*
X136497802Y-104180778D01*
X136499500Y-104201226D01*
X136499500Y-116675500D01*
X136479815Y-116742539D01*
X136427011Y-116788294D01*
X136375500Y-116799500D01*
X134124915Y-116799500D01*
X134124915Y-116796765D01*
X134067778Y-116785806D01*
X134017168Y-116737635D01*
X134000500Y-116675540D01*
X134000500Y-116150096D01*
X134020185Y-116083057D01*
X134036815Y-116062419D01*
X134218535Y-115880698D01*
X134279856Y-115847215D01*
X134292311Y-115845163D01*
X134379255Y-115835368D01*
X134549522Y-115775789D01*
X134702262Y-115679816D01*
X134829816Y-115552262D01*
X134925789Y-115399522D01*
X134985368Y-115229255D01*
X134991616Y-115173804D01*
X135005565Y-115050003D01*
X135005565Y-115049996D01*
X134985369Y-114870750D01*
X134985368Y-114870745D01*
X134982261Y-114861866D01*
X134925789Y-114700478D01*
X134829816Y-114547738D01*
X134702262Y-114420184D01*
X134549523Y-114324211D01*
X134379254Y-114264631D01*
X134379249Y-114264630D01*
X134200004Y-114244435D01*
X134199996Y-114244435D01*
X134020750Y-114264630D01*
X134020745Y-114264631D01*
X133850476Y-114324211D01*
X133697736Y-114420185D01*
X133694903Y-114422445D01*
X133692724Y-114423334D01*
X133691842Y-114423889D01*
X133691744Y-114423734D01*
X133630217Y-114448855D01*
X133617588Y-114449500D01*
X132206715Y-114449500D01*
X132139676Y-114429815D01*
X132100598Y-114389650D01*
X132070472Y-114339815D01*
X132070470Y-114339813D01*
X132070469Y-114339811D01*
X131950188Y-114219530D01*
X131947961Y-114218184D01*
X131804606Y-114131522D01*
X131642196Y-114080914D01*
X131642194Y-114080913D01*
X131642192Y-114080913D01*
X131592778Y-114076423D01*
X131571616Y-114074500D01*
X131058384Y-114074500D01*
X131039145Y-114076248D01*
X130987807Y-114080913D01*
X130825393Y-114131522D01*
X130679811Y-114219530D01*
X130679810Y-114219531D01*
X130577681Y-114321661D01*
X130516358Y-114355146D01*
X130446666Y-114350162D01*
X130402319Y-114321661D01*
X130300188Y-114219530D01*
X130297961Y-114218184D01*
X130154606Y-114131522D01*
X129992196Y-114080914D01*
X129992194Y-114080913D01*
X129992192Y-114080913D01*
X129942778Y-114076423D01*
X129921616Y-114074500D01*
X129420098Y-114074500D01*
X129353059Y-114054815D01*
X129332417Y-114038181D01*
X129206416Y-113912180D01*
X129172931Y-113850857D01*
X129177915Y-113781165D01*
X129219787Y-113725232D01*
X129285251Y-113700815D01*
X129294097Y-113700499D01*
X130200002Y-113700499D01*
X130200008Y-113700499D01*
X130302797Y-113689999D01*
X130469334Y-113634814D01*
X130618656Y-113542712D01*
X130742712Y-113418656D01*
X130834814Y-113269334D01*
X130889999Y-113102797D01*
X130900500Y-113000009D01*
X130900499Y-112199992D01*
X130893908Y-112135475D01*
X130906677Y-112066786D01*
X130954557Y-112015901D01*
X131022347Y-111998980D01*
X131080387Y-112016144D01*
X131139803Y-112051282D01*
X131139806Y-112051283D01*
X131297504Y-112097099D01*
X131297510Y-112097100D01*
X131334350Y-112099999D01*
X131334366Y-112100000D01*
X131775000Y-112100000D01*
X132275000Y-112100000D01*
X132715634Y-112100000D01*
X132715649Y-112099999D01*
X132752489Y-112097100D01*
X132752495Y-112097099D01*
X132910193Y-112051283D01*
X132910196Y-112051282D01*
X133051552Y-111967685D01*
X133051561Y-111967678D01*
X133167678Y-111851561D01*
X133167685Y-111851552D01*
X133251281Y-111710198D01*
X133297100Y-111552486D01*
X133297295Y-111550001D01*
X133297295Y-111550000D01*
X132275000Y-111550000D01*
X132275000Y-112100000D01*
X131775000Y-112100000D01*
X131775000Y-111550000D01*
X130752705Y-111550000D01*
X130736326Y-111567718D01*
X130734889Y-111574558D01*
X130685835Y-111624312D01*
X130617669Y-111639648D01*
X130560542Y-111621443D01*
X130469340Y-111565189D01*
X130469335Y-111565187D01*
X130469334Y-111565186D01*
X130302797Y-111510001D01*
X130302795Y-111510000D01*
X130200016Y-111499500D01*
X130200009Y-111499500D01*
X129964352Y-111499500D01*
X129897313Y-111479815D01*
X129851558Y-111427011D01*
X129841614Y-111357853D01*
X129870639Y-111294297D01*
X129876671Y-111287819D01*
X130196409Y-110968081D01*
X130572517Y-110591972D01*
X130633839Y-110558489D01*
X130703531Y-110563473D01*
X130759464Y-110605345D01*
X130779273Y-110645060D01*
X130798254Y-110710393D01*
X130798256Y-110710398D01*
X130814207Y-110737371D01*
X130831388Y-110805095D01*
X130814208Y-110863608D01*
X130798719Y-110889798D01*
X130798716Y-110889806D01*
X130752900Y-111047505D01*
X130752899Y-111047511D01*
X130752704Y-111049998D01*
X130752705Y-111050000D01*
X131115950Y-111050000D01*
X131150545Y-111054924D01*
X131297426Y-111097597D01*
X131297429Y-111097597D01*
X131297431Y-111097598D01*
X131334306Y-111100500D01*
X131334314Y-111100500D01*
X132715686Y-111100500D01*
X132715694Y-111100500D01*
X132752569Y-111097598D01*
X132752571Y-111097597D01*
X132752573Y-111097597D01*
X132899455Y-111054924D01*
X132934050Y-111050000D01*
X133249403Y-111050000D01*
X133316442Y-111069685D01*
X133337084Y-111086319D01*
X133519298Y-111268533D01*
X133552783Y-111329856D01*
X133554837Y-111342330D01*
X133564630Y-111429249D01*
X133624210Y-111599521D01*
X133720184Y-111752262D01*
X133847738Y-111879816D01*
X133928665Y-111930666D01*
X133994662Y-111972135D01*
X134000478Y-111975789D01*
X134090337Y-112007232D01*
X134170745Y-112035368D01*
X134170750Y-112035369D01*
X134349996Y-112055565D01*
X134350000Y-112055565D01*
X134350004Y-112055565D01*
X134529249Y-112035369D01*
X134529252Y-112035368D01*
X134529255Y-112035368D01*
X134699522Y-111975789D01*
X134852262Y-111879816D01*
X134979816Y-111752262D01*
X135075789Y-111599522D01*
X135135368Y-111429255D01*
X135135621Y-111427011D01*
X135155565Y-111250003D01*
X135155565Y-111249996D01*
X135135369Y-111070750D01*
X135135368Y-111070745D01*
X135078449Y-110908081D01*
X135075789Y-110900478D01*
X135069901Y-110891108D01*
X134979815Y-110747737D01*
X134852262Y-110620184D01*
X134699521Y-110524210D01*
X134529249Y-110464630D01*
X134442330Y-110454837D01*
X134377916Y-110427770D01*
X134368533Y-110419298D01*
X133887590Y-109938355D01*
X133887588Y-109938352D01*
X133768717Y-109819481D01*
X133768716Y-109819480D01*
X133681904Y-109769360D01*
X133681904Y-109769359D01*
X133681900Y-109769358D01*
X133631785Y-109740423D01*
X133479057Y-109699499D01*
X133419461Y-109699499D01*
X133352422Y-109679814D01*
X133306667Y-109627010D01*
X133296723Y-109557852D01*
X133297480Y-109553211D01*
X133297594Y-109552582D01*
X133297598Y-109552569D01*
X133300500Y-109515694D01*
X133300500Y-109084306D01*
X133297598Y-109047431D01*
X133295529Y-109040310D01*
X133251745Y-108889606D01*
X133251744Y-108889602D01*
X133236084Y-108863122D01*
X133218900Y-108795399D01*
X133236084Y-108736878D01*
X133251742Y-108710401D01*
X133251744Y-108710398D01*
X133297598Y-108552569D01*
X133300500Y-108515694D01*
X133300500Y-108084306D01*
X133297598Y-108047431D01*
X133297409Y-108046781D01*
X133255249Y-107901667D01*
X133251744Y-107889602D01*
X133168081Y-107748135D01*
X133168079Y-107748133D01*
X133168076Y-107748129D01*
X133051870Y-107631923D01*
X133051862Y-107631917D01*
X132969550Y-107583238D01*
X132910398Y-107548256D01*
X132910397Y-107548255D01*
X132910396Y-107548255D01*
X132910393Y-107548254D01*
X132752573Y-107502402D01*
X132752567Y-107502401D01*
X132715701Y-107499500D01*
X132715694Y-107499500D01*
X131334306Y-107499500D01*
X131334298Y-107499500D01*
X131297432Y-107502401D01*
X131297426Y-107502402D01*
X131139606Y-107548254D01*
X131139605Y-107548254D01*
X131080450Y-107583238D01*
X131012726Y-107600419D01*
X130946463Y-107578259D01*
X130902701Y-107523793D01*
X130893972Y-107463903D01*
X130900500Y-107400009D01*
X130900499Y-106599992D01*
X130899735Y-106592517D01*
X130889999Y-106497203D01*
X130889998Y-106497200D01*
X130889667Y-106496202D01*
X130834814Y-106330666D01*
X130742712Y-106181344D01*
X130618656Y-106057288D01*
X130469334Y-105965186D01*
X130302797Y-105910001D01*
X130302795Y-105910000D01*
X130200010Y-105899500D01*
X128799998Y-105899500D01*
X128799981Y-105899501D01*
X128697203Y-105910000D01*
X128697200Y-105910001D01*
X128530668Y-105965185D01*
X128530663Y-105965187D01*
X128381342Y-106057289D01*
X128257289Y-106181342D01*
X128165187Y-106330663D01*
X128165186Y-106330666D01*
X128110001Y-106497203D01*
X128110001Y-106497204D01*
X128110000Y-106497204D01*
X128099500Y-106599983D01*
X128099500Y-107400001D01*
X128099501Y-107400019D01*
X128110000Y-107502796D01*
X128110001Y-107502799D01*
X128165185Y-107669331D01*
X128165187Y-107669336D01*
X128200069Y-107725888D01*
X128257288Y-107818656D01*
X128381344Y-107942712D01*
X128530666Y-108034814D01*
X128697203Y-108089999D01*
X128799991Y-108100500D01*
X130200008Y-108100499D01*
X130302797Y-108089999D01*
X130302798Y-108089998D01*
X130302801Y-108089998D01*
X130326568Y-108082122D01*
X130396396Y-108079719D01*
X130456439Y-108115449D01*
X130487632Y-108177969D01*
X130480073Y-108247428D01*
X130453255Y-108287508D01*
X128956390Y-109784373D01*
X128895067Y-109817858D01*
X128825375Y-109812874D01*
X128769442Y-109771002D01*
X128745489Y-109710574D01*
X128735369Y-109620750D01*
X128735368Y-109620745D01*
X128711109Y-109551416D01*
X128675789Y-109450478D01*
X128657106Y-109420745D01*
X128626872Y-109372627D01*
X128579816Y-109297738D01*
X128452262Y-109170184D01*
X128362765Y-109113949D01*
X128299523Y-109074211D01*
X128129254Y-109014631D01*
X128129249Y-109014630D01*
X127950004Y-108994435D01*
X127949996Y-108994435D01*
X127770750Y-109014630D01*
X127770745Y-109014631D01*
X127600472Y-109074212D01*
X127567468Y-109094950D01*
X127500231Y-109113949D01*
X127433396Y-109093579D01*
X127388184Y-109040310D01*
X127377499Y-108989959D01*
X127377499Y-108162128D01*
X127371091Y-108102517D01*
X127328235Y-107987616D01*
X127323252Y-107917927D01*
X127328236Y-107900951D01*
X127370597Y-107787376D01*
X127370598Y-107787372D01*
X127376999Y-107727844D01*
X127377000Y-107727827D01*
X127377000Y-107560000D01*
X123587000Y-107560000D01*
X123587000Y-107727844D01*
X123593401Y-107787372D01*
X123593403Y-107787379D01*
X123635763Y-107900952D01*
X123640747Y-107970644D01*
X123635763Y-107987618D01*
X123592908Y-108102517D01*
X123586501Y-108162116D01*
X123586501Y-108162123D01*
X123586500Y-108162135D01*
X123586500Y-108997870D01*
X123586501Y-108997876D01*
X123592908Y-109057483D01*
X123635763Y-109172381D01*
X123640747Y-109242073D01*
X123635763Y-109259047D01*
X123593403Y-109372620D01*
X123593401Y-109372627D01*
X123587000Y-109432155D01*
X123587000Y-109600000D01*
X125608000Y-109600000D01*
X125675039Y-109619685D01*
X125720794Y-109672489D01*
X125732000Y-109724000D01*
X125732000Y-111246000D01*
X125712315Y-111313039D01*
X125659511Y-111358794D01*
X125608000Y-111370000D01*
X123587000Y-111370000D01*
X123587000Y-111537844D01*
X123593401Y-111597372D01*
X123593403Y-111597379D01*
X123635763Y-111710952D01*
X123640747Y-111780644D01*
X123635763Y-111797618D01*
X123592910Y-111912513D01*
X123592909Y-111912517D01*
X123586500Y-111972127D01*
X123586500Y-112199998D01*
X123586501Y-112375500D01*
X123566817Y-112442539D01*
X123514013Y-112488294D01*
X123462501Y-112499500D01*
X123437500Y-112499500D01*
X123370461Y-112479815D01*
X123324706Y-112427011D01*
X123313500Y-112375500D01*
X123313499Y-111972129D01*
X123313498Y-111972123D01*
X123313020Y-111967678D01*
X123307091Y-111912517D01*
X123294894Y-111879816D01*
X123264503Y-111798333D01*
X123259519Y-111728642D01*
X123264503Y-111711667D01*
X123297084Y-111624312D01*
X123307091Y-111597483D01*
X123313500Y-111537873D01*
X123313499Y-110702128D01*
X123307091Y-110642517D01*
X123298761Y-110620184D01*
X123264503Y-110528333D01*
X123259519Y-110458642D01*
X123264503Y-110441667D01*
X123272846Y-110419298D01*
X123307091Y-110327483D01*
X123313500Y-110267873D01*
X123313500Y-110267844D01*
X123587000Y-110267844D01*
X123593401Y-110327372D01*
X123593403Y-110327380D01*
X123636029Y-110441667D01*
X123641013Y-110511359D01*
X123636029Y-110528333D01*
X123593403Y-110642619D01*
X123593401Y-110642627D01*
X123587000Y-110702155D01*
X123587000Y-110870000D01*
X125232000Y-110870000D01*
X125232000Y-110100000D01*
X123587000Y-110100000D01*
X123587000Y-110267844D01*
X123313500Y-110267844D01*
X123313499Y-109432128D01*
X123307091Y-109372517D01*
X123264502Y-109258332D01*
X123259519Y-109188642D01*
X123264503Y-109171667D01*
X123273639Y-109147172D01*
X123307091Y-109057483D01*
X123313500Y-108997873D01*
X123313499Y-108162128D01*
X123307091Y-108102517D01*
X123307077Y-108102480D01*
X123264503Y-107988333D01*
X123259519Y-107918642D01*
X123264503Y-107901667D01*
X123264770Y-107900951D01*
X123307091Y-107787483D01*
X123313500Y-107727873D01*
X123313499Y-106892155D01*
X123587000Y-106892155D01*
X123587000Y-107060000D01*
X125232000Y-107060000D01*
X125732000Y-107060000D01*
X127377000Y-107060000D01*
X127377000Y-106892172D01*
X127376999Y-106892155D01*
X127370598Y-106832627D01*
X127370596Y-106832620D01*
X127320354Y-106697913D01*
X127320350Y-106697906D01*
X127234190Y-106582812D01*
X127234187Y-106582809D01*
X127119093Y-106496649D01*
X127119086Y-106496645D01*
X126984379Y-106446403D01*
X126984372Y-106446401D01*
X126924844Y-106440000D01*
X125732000Y-106440000D01*
X125732000Y-107060000D01*
X125232000Y-107060000D01*
X125232000Y-106440000D01*
X124039155Y-106440000D01*
X123979627Y-106446401D01*
X123979620Y-106446403D01*
X123844913Y-106496645D01*
X123844906Y-106496649D01*
X123729812Y-106582809D01*
X123729809Y-106582812D01*
X123643649Y-106697906D01*
X123643645Y-106697913D01*
X123593403Y-106832620D01*
X123593401Y-106832627D01*
X123587000Y-106892155D01*
X123313499Y-106892155D01*
X123313499Y-106892128D01*
X123307091Y-106832517D01*
X123256884Y-106697906D01*
X123256797Y-106697671D01*
X123256793Y-106697664D01*
X123170547Y-106582455D01*
X123170544Y-106582452D01*
X123055335Y-106496206D01*
X123055328Y-106496202D01*
X122920482Y-106445908D01*
X122920483Y-106445908D01*
X122860883Y-106439501D01*
X122860881Y-106439500D01*
X122860873Y-106439500D01*
X122860865Y-106439500D01*
X122142500Y-106439500D01*
X122075461Y-106419815D01*
X122029706Y-106367011D01*
X122018500Y-106315500D01*
X122018500Y-105984500D01*
X122038185Y-105917461D01*
X122090989Y-105871706D01*
X122142500Y-105860500D01*
X125318331Y-105860500D01*
X125318347Y-105860501D01*
X125325943Y-105860501D01*
X125484054Y-105860501D01*
X125484057Y-105860501D01*
X125636785Y-105819577D01*
X125686904Y-105790639D01*
X125773716Y-105740520D01*
X125885520Y-105628716D01*
X125885520Y-105628714D01*
X125895728Y-105618507D01*
X125895729Y-105618504D01*
X126452417Y-105061818D01*
X126513740Y-105028333D01*
X126540098Y-105025499D01*
X127037871Y-105025499D01*
X127037872Y-105025499D01*
X127097483Y-105019091D01*
X127232331Y-104968796D01*
X127347546Y-104882546D01*
X127387756Y-104828833D01*
X127390485Y-104825188D01*
X127446419Y-104783318D01*
X127489751Y-104775500D01*
X129990249Y-104775500D01*
X130057288Y-104795185D01*
X130089515Y-104825188D01*
X130092244Y-104828833D01*
X130132454Y-104882546D01*
X130132457Y-104882548D01*
X130247664Y-104968793D01*
X130247671Y-104968797D01*
X130382517Y-105019091D01*
X130382516Y-105019091D01*
X130389444Y-105019835D01*
X130442127Y-105025500D01*
X131537872Y-105025499D01*
X131597483Y-105019091D01*
X131732331Y-104968796D01*
X131847546Y-104882546D01*
X131933796Y-104767331D01*
X131984091Y-104632483D01*
X131990500Y-104572873D01*
X131990499Y-103777128D01*
X131984091Y-103717517D01*
X131963069Y-103661155D01*
X131933797Y-103582671D01*
X131933793Y-103582664D01*
X131847547Y-103467455D01*
X131847544Y-103467452D01*
X131732335Y-103381206D01*
X131732328Y-103381202D01*
X131597482Y-103330908D01*
X131597483Y-103330908D01*
X131537883Y-103324501D01*
X131537881Y-103324500D01*
X131537873Y-103324500D01*
X131537864Y-103324500D01*
X130442129Y-103324500D01*
X130442123Y-103324501D01*
X130382516Y-103330908D01*
X130247671Y-103381202D01*
X130247664Y-103381206D01*
X130132457Y-103467451D01*
X130132451Y-103467457D01*
X130089515Y-103524812D01*
X130033581Y-103566682D01*
X129990249Y-103574500D01*
X127489751Y-103574500D01*
X127422712Y-103554815D01*
X127390485Y-103524812D01*
X127350013Y-103470750D01*
X127347546Y-103467454D01*
X127307644Y-103437583D01*
X127232335Y-103381206D01*
X127232328Y-103381202D01*
X127097482Y-103330908D01*
X127097483Y-103330908D01*
X127037883Y-103324501D01*
X127037881Y-103324500D01*
X127037873Y-103324500D01*
X127037864Y-103324500D01*
X125942129Y-103324500D01*
X125942123Y-103324501D01*
X125882516Y-103330908D01*
X125747671Y-103381202D01*
X125747664Y-103381206D01*
X125632455Y-103467452D01*
X125632452Y-103467455D01*
X125546206Y-103582664D01*
X125546202Y-103582671D01*
X125495908Y-103717517D01*
X125489501Y-103777116D01*
X125489501Y-103777123D01*
X125489500Y-103777135D01*
X125489500Y-104274900D01*
X125469815Y-104341939D01*
X125453182Y-104362581D01*
X125380396Y-104435368D01*
X125242882Y-104572883D01*
X125192584Y-104623181D01*
X125131261Y-104656666D01*
X125104902Y-104659500D01*
X121718097Y-104659500D01*
X121651058Y-104639815D01*
X121630416Y-104623181D01*
X119470962Y-102463727D01*
X119448638Y-102422844D01*
X125490000Y-102422844D01*
X125496401Y-102482372D01*
X125496403Y-102482379D01*
X125546645Y-102617086D01*
X125546649Y-102617093D01*
X125632809Y-102732187D01*
X125632812Y-102732190D01*
X125747906Y-102818350D01*
X125747913Y-102818354D01*
X125882620Y-102868596D01*
X125882627Y-102868598D01*
X125942155Y-102874999D01*
X125942172Y-102875000D01*
X126240000Y-102875000D01*
X126740000Y-102875000D01*
X127037828Y-102875000D01*
X127037844Y-102874999D01*
X127097372Y-102868598D01*
X127097379Y-102868596D01*
X127232086Y-102818354D01*
X127232093Y-102818350D01*
X127347187Y-102732190D01*
X127347190Y-102732187D01*
X127433350Y-102617093D01*
X127433354Y-102617086D01*
X127483596Y-102482379D01*
X127483598Y-102482372D01*
X127489999Y-102422844D01*
X129990000Y-102422844D01*
X129996401Y-102482372D01*
X129996403Y-102482379D01*
X130046645Y-102617086D01*
X130046649Y-102617093D01*
X130132809Y-102732187D01*
X130132812Y-102732190D01*
X130247906Y-102818350D01*
X130247913Y-102818354D01*
X130382620Y-102868596D01*
X130382627Y-102868598D01*
X130442155Y-102874999D01*
X130442172Y-102875000D01*
X130740000Y-102875000D01*
X130740000Y-102275000D01*
X129990000Y-102275000D01*
X129990000Y-102422844D01*
X127489999Y-102422844D01*
X127490000Y-102422827D01*
X127490000Y-102275000D01*
X126740000Y-102275000D01*
X126740000Y-102875000D01*
X126240000Y-102875000D01*
X126240000Y-102275000D01*
X125490000Y-102275000D01*
X125490000Y-102422844D01*
X119448638Y-102422844D01*
X119437477Y-102402404D01*
X119442461Y-102332712D01*
X119467412Y-102292063D01*
X119500269Y-102256373D01*
X119626217Y-102063595D01*
X119718717Y-101852716D01*
X119775246Y-101629488D01*
X119775439Y-101627155D01*
X125490000Y-101627155D01*
X125490000Y-101775000D01*
X126240000Y-101775000D01*
X126740000Y-101775000D01*
X127490000Y-101775000D01*
X127490000Y-101627172D01*
X127489999Y-101627155D01*
X129990000Y-101627155D01*
X129990000Y-101775000D01*
X130740000Y-101775000D01*
X130740000Y-101175000D01*
X130442155Y-101175000D01*
X130382627Y-101181401D01*
X130382620Y-101181403D01*
X130247913Y-101231645D01*
X130247906Y-101231649D01*
X130132812Y-101317809D01*
X130132809Y-101317812D01*
X130046649Y-101432906D01*
X130046645Y-101432913D01*
X129996403Y-101567620D01*
X129996401Y-101567627D01*
X129990000Y-101627155D01*
X127489999Y-101627155D01*
X127483598Y-101567627D01*
X127483596Y-101567620D01*
X127433354Y-101432913D01*
X127433350Y-101432906D01*
X127347190Y-101317812D01*
X127347187Y-101317809D01*
X127232093Y-101231649D01*
X127232086Y-101231645D01*
X127097379Y-101181403D01*
X127097372Y-101181401D01*
X127037844Y-101175000D01*
X126740000Y-101175000D01*
X126740000Y-101775000D01*
X126240000Y-101775000D01*
X126240000Y-101175000D01*
X125942155Y-101175000D01*
X125882627Y-101181401D01*
X125882620Y-101181403D01*
X125747913Y-101231645D01*
X125747906Y-101231649D01*
X125632812Y-101317809D01*
X125632809Y-101317812D01*
X125546649Y-101432906D01*
X125546645Y-101432913D01*
X125496403Y-101567620D01*
X125496401Y-101567627D01*
X125490000Y-101627155D01*
X119775439Y-101627155D01*
X119785192Y-101509461D01*
X119794262Y-101400005D01*
X119794262Y-101399994D01*
X119775618Y-101175000D01*
X119775246Y-101170512D01*
X119718717Y-100947284D01*
X119626217Y-100736405D01*
X119612162Y-100714892D01*
X119597416Y-100692321D01*
X119577228Y-100625431D01*
X119596409Y-100558246D01*
X119648868Y-100512096D01*
X119701225Y-100500500D01*
X132802061Y-100500500D01*
X132869100Y-100520185D01*
G37*
%TD.AperFunction*%
%TA.AperFunction,Conductor*%
G36*
X104466412Y-100520185D02*
G01*
X104512167Y-100572989D01*
X104522111Y-100642147D01*
X104503182Y-100692321D01*
X104474224Y-100736644D01*
X104381757Y-100947446D01*
X104325249Y-101170591D01*
X104325247Y-101170603D01*
X104306240Y-101399994D01*
X104306240Y-101400005D01*
X104325247Y-101629396D01*
X104325249Y-101629408D01*
X104381757Y-101852553D01*
X104474223Y-102063352D01*
X104556760Y-102189684D01*
X105217036Y-101529407D01*
X105234075Y-101592993D01*
X105299901Y-101707007D01*
X105392993Y-101800099D01*
X105507007Y-101865925D01*
X105570590Y-101882962D01*
X104909040Y-102544512D01*
X104909040Y-102544514D01*
X104937677Y-102566803D01*
X104937683Y-102566807D01*
X105140131Y-102676367D01*
X105140140Y-102676370D01*
X105357849Y-102751110D01*
X105584905Y-102789000D01*
X105815095Y-102789000D01*
X106042150Y-102751110D01*
X106259859Y-102676370D01*
X106259868Y-102676367D01*
X106462315Y-102566807D01*
X106462316Y-102566806D01*
X106490958Y-102544513D01*
X106490959Y-102544511D01*
X105829410Y-101882962D01*
X105892993Y-101865925D01*
X106007007Y-101800099D01*
X106100099Y-101707007D01*
X106165925Y-101592993D01*
X106182962Y-101529409D01*
X106843238Y-102189685D01*
X106865892Y-102155012D01*
X106919038Y-102109656D01*
X106988269Y-102100232D01*
X107051605Y-102129734D01*
X107073509Y-102155013D01*
X107139728Y-102256370D01*
X107139731Y-102256373D01*
X107295692Y-102425792D01*
X107391035Y-102500000D01*
X107477408Y-102567227D01*
X107477413Y-102567230D01*
X107574517Y-102619780D01*
X107624108Y-102668999D01*
X107639500Y-102728835D01*
X107639500Y-103349902D01*
X107619815Y-103416941D01*
X107603181Y-103437583D01*
X107263648Y-103777116D01*
X106911286Y-104129478D01*
X106911284Y-104129480D01*
X106652340Y-104388423D01*
X106577581Y-104463182D01*
X106516258Y-104496666D01*
X106489900Y-104499500D01*
X106042129Y-104499500D01*
X106042123Y-104499501D01*
X105982516Y-104505908D01*
X105899732Y-104536785D01*
X105830041Y-104541769D01*
X105813067Y-104536785D01*
X105730282Y-104505908D01*
X105730283Y-104505908D01*
X105670683Y-104499501D01*
X105670681Y-104499500D01*
X105670673Y-104499500D01*
X105670664Y-104499500D01*
X104774929Y-104499500D01*
X104774923Y-104499501D01*
X104715316Y-104505908D01*
X104629732Y-104537829D01*
X104560040Y-104542813D01*
X104543068Y-104537829D01*
X104457485Y-104505909D01*
X104457483Y-104505908D01*
X104397883Y-104499501D01*
X104397881Y-104499500D01*
X104397873Y-104499500D01*
X104397865Y-104499500D01*
X103624000Y-104499500D01*
X103556961Y-104479815D01*
X103511206Y-104427011D01*
X103500000Y-104375500D01*
X103500000Y-103701674D01*
X103519685Y-103634635D01*
X103536319Y-103613993D01*
X103595497Y-103554815D01*
X103659773Y-103490539D01*
X103800448Y-103296916D01*
X103909103Y-103083670D01*
X103983061Y-102856051D01*
X104003953Y-102724135D01*
X104020500Y-102619671D01*
X104020500Y-102380328D01*
X103991608Y-102197915D01*
X103983061Y-102143949D01*
X103909103Y-101916330D01*
X103909101Y-101916327D01*
X103909101Y-101916325D01*
X103849880Y-101800099D01*
X103800448Y-101703084D01*
X103746975Y-101629484D01*
X103659778Y-101509467D01*
X103659774Y-101509462D01*
X103536319Y-101386007D01*
X103502834Y-101324684D01*
X103500000Y-101298326D01*
X103500000Y-100624500D01*
X103519685Y-100557461D01*
X103572489Y-100511706D01*
X103624000Y-100500500D01*
X104399373Y-100500500D01*
X104466412Y-100520185D01*
G37*
%TD.AperFunction*%
%TD*%
M02*
