M48
; DRILL file {KiCad 8.0.2} date 2024-05-18T21:01:54+1200
; FORMAT={-:-/ absolute / inch / decimal}
; #@! TF.CreationDate,2024-05-18T21:01:54+12:00
; #@! TF.GenerationSoftware,Kicad,Pcbnew,8.0.2
; #@! TF.FileFunction,Plated,1,2,PTH
FMAT,2
INCH
; #@! TA.AperFunction,Plated,PTH,ViaDrill
T1C0.0118
; #@! TA.AperFunction,Plated,PTH,ComponentDrill
T2C0.0394
; #@! TA.AperFunction,Plated,PTH,ComponentDrill
T3C0.0984
%
G90
G05
T1
X4.1433Y-4.689
X4.2815Y-4.3406
X4.3039Y-4.1102
X4.3106Y-4.689
X4.4193Y-4.4783
X4.5992Y-4.0807
X4.6423Y-4.3012
X4.6675Y-4.3647
X4.6917Y-4.3445
X4.7083Y-4.315
X4.852Y-4.0787
X4.9602Y-4.6004
X4.9782Y-4.502
X5.0374Y-4.3228
X5.0545Y-4.3733
X5.1079Y-4.5807
X5.1759Y-4.6024
X5.2835Y-4.5295
X5.2894Y-4.3799
X5.3229Y-4.7067
X5.3445Y-4.5177
T2
X4.1614Y-3.9921
X4.1614Y-4.7874
X4.2614Y-3.9921
X4.2614Y-4.7874
X4.3614Y-3.9921
X4.3614Y-4.7874
X4.4614Y-3.9921
X4.4614Y-4.7874
X4.5614Y-3.9921
X4.6614Y-3.9921
T3
X5.2953Y-4.0354
M30
