%TF.GenerationSoftware,KiCad,Pcbnew,8.0.4*%
%TF.CreationDate,2024-08-13T11:19:50+12:00*%
%TF.ProjectId,yuzu-pcb,79757a75-2d70-4636-922e-6b696361645f,rev?*%
%TF.SameCoordinates,Original*%
%TF.FileFunction,Legend,Bot*%
%TF.FilePolarity,Positive*%
%FSLAX46Y46*%
G04 Gerber Fmt 4.6, Leading zero omitted, Abs format (unit mm)*
G04 Created by KiCad (PCBNEW 8.0.4) date 2024-08-13 11:19:50*
%MOMM*%
%LPD*%
G01*
G04 APERTURE LIST*
%ADD10C,0.100000*%
%ADD11C,0.150000*%
%ADD12C,0.120000*%
%ADD13C,2.540000*%
%ADD14C,1.878000*%
%ADD15C,3.911600*%
%ADD16R,2.600000X3.600000*%
G04 APERTURE END LIST*
D10*
X101853771Y-113755639D02*
X101377580Y-113755639D01*
X102377580Y-114088972D02*
X101853771Y-113755639D01*
X101853771Y-113755639D02*
X102377580Y-113422306D01*
X102377580Y-113088972D02*
X101568057Y-113088972D01*
X101568057Y-113088972D02*
X101472819Y-113041353D01*
X101472819Y-113041353D02*
X101425200Y-112993734D01*
X101425200Y-112993734D02*
X101377580Y-112898496D01*
X101377580Y-112898496D02*
X101377580Y-112708020D01*
X101377580Y-112708020D02*
X101425200Y-112612782D01*
X101425200Y-112612782D02*
X101472819Y-112565163D01*
X101472819Y-112565163D02*
X101568057Y-112517544D01*
X101568057Y-112517544D02*
X102377580Y-112517544D01*
X102377580Y-112136591D02*
X102377580Y-111469925D01*
X102377580Y-111469925D02*
X101377580Y-112136591D01*
X101377580Y-112136591D02*
X101377580Y-111469925D01*
X102377580Y-111088972D02*
X101568057Y-111088972D01*
X101568057Y-111088972D02*
X101472819Y-111041353D01*
X101472819Y-111041353D02*
X101425200Y-110993734D01*
X101425200Y-110993734D02*
X101377580Y-110898496D01*
X101377580Y-110898496D02*
X101377580Y-110708020D01*
X101377580Y-110708020D02*
X101425200Y-110612782D01*
X101425200Y-110612782D02*
X101472819Y-110565163D01*
X101472819Y-110565163D02*
X101568057Y-110517544D01*
X101568057Y-110517544D02*
X102377580Y-110517544D01*
X101044247Y-108993734D02*
X101044247Y-109231829D01*
X101044247Y-109231829D02*
X102472819Y-109231829D01*
X102472819Y-109231829D02*
X102472819Y-108993734D01*
X101901390Y-108279448D02*
X101853771Y-108136591D01*
X101853771Y-108136591D02*
X101806152Y-108088972D01*
X101806152Y-108088972D02*
X101710914Y-108041353D01*
X101710914Y-108041353D02*
X101568057Y-108041353D01*
X101568057Y-108041353D02*
X101472819Y-108088972D01*
X101472819Y-108088972D02*
X101425200Y-108136591D01*
X101425200Y-108136591D02*
X101377580Y-108231829D01*
X101377580Y-108231829D02*
X101377580Y-108612781D01*
X101377580Y-108612781D02*
X102377580Y-108612781D01*
X102377580Y-108612781D02*
X102377580Y-108279448D01*
X102377580Y-108279448D02*
X102329961Y-108184210D01*
X102329961Y-108184210D02*
X102282342Y-108136591D01*
X102282342Y-108136591D02*
X102187104Y-108088972D01*
X102187104Y-108088972D02*
X102091866Y-108088972D01*
X102091866Y-108088972D02*
X101996628Y-108136591D01*
X101996628Y-108136591D02*
X101949009Y-108184210D01*
X101949009Y-108184210D02*
X101901390Y-108279448D01*
X101901390Y-108279448D02*
X101901390Y-108612781D01*
X101044247Y-107708019D02*
X101044247Y-107469924D01*
X101044247Y-107469924D02*
X102472819Y-107469924D01*
X102472819Y-107469924D02*
X102472819Y-107708019D01*
D11*
X132131009Y-104864285D02*
X132178628Y-105007142D01*
X132178628Y-105007142D02*
X132226247Y-105054761D01*
X132226247Y-105054761D02*
X132321485Y-105102380D01*
X132321485Y-105102380D02*
X132464342Y-105102380D01*
X132464342Y-105102380D02*
X132559580Y-105054761D01*
X132559580Y-105054761D02*
X132607200Y-105007142D01*
X132607200Y-105007142D02*
X132654819Y-104911904D01*
X132654819Y-104911904D02*
X132654819Y-104530952D01*
X132654819Y-104530952D02*
X131654819Y-104530952D01*
X131654819Y-104530952D02*
X131654819Y-104864285D01*
X131654819Y-104864285D02*
X131702438Y-104959523D01*
X131702438Y-104959523D02*
X131750057Y-105007142D01*
X131750057Y-105007142D02*
X131845295Y-105054761D01*
X131845295Y-105054761D02*
X131940533Y-105054761D01*
X131940533Y-105054761D02*
X132035771Y-105007142D01*
X132035771Y-105007142D02*
X132083390Y-104959523D01*
X132083390Y-104959523D02*
X132131009Y-104864285D01*
X132131009Y-104864285D02*
X132131009Y-104530952D01*
X131654819Y-105388095D02*
X131654819Y-105959523D01*
X132654819Y-105673809D02*
X131654819Y-105673809D01*
X132654819Y-106816666D02*
X132654819Y-106245238D01*
X132654819Y-106530952D02*
X131654819Y-106530952D01*
X131654819Y-106530952D02*
X131797676Y-106435714D01*
X131797676Y-106435714D02*
X131892914Y-106340476D01*
X131892914Y-106340476D02*
X131940533Y-106245238D01*
D12*
%TO.C,BT1*%
X105150000Y-107400000D02*
X108350000Y-107400000D01*
X105150000Y-108950000D02*
X105150000Y-107400000D01*
X105150000Y-113550000D02*
X105150000Y-115100000D01*
X105150000Y-115100000D02*
X108350000Y-115100000D01*
X108350000Y-102900000D02*
X131050000Y-102900000D01*
X108350000Y-107400000D02*
X108350000Y-102900000D01*
X108350000Y-115100000D02*
X108350000Y-119600000D01*
X129250000Y-119600000D02*
X108350000Y-119600000D01*
X131050000Y-107400000D02*
X131050000Y-102900000D01*
X131050000Y-115100000D02*
X131050000Y-117800000D01*
X131050000Y-117800000D02*
X129250000Y-119600000D01*
X132700000Y-118250000D02*
X132700000Y-116250000D01*
X133700000Y-117250000D02*
X131700000Y-117250000D01*
X134250000Y-107400000D02*
X131050000Y-107400000D01*
X134250000Y-108950000D02*
X134250000Y-107400000D01*
X134250000Y-113550000D02*
X134250000Y-115100000D01*
X134250000Y-115100000D02*
X131050000Y-115100000D01*
%TD*%
%LPC*%
D13*
%TO.C,REF\u002A\u002A*%
X102500000Y-120500000D03*
%TD*%
D14*
%TO.C,TP3*%
X110780000Y-121600000D03*
%TD*%
%TO.C,TP2*%
X108240000Y-121600000D03*
%TD*%
%TO.C,TP9*%
X115860000Y-101400000D03*
%TD*%
%TO.C,TP4*%
X113320000Y-121600000D03*
%TD*%
%TO.C,TP6*%
X108240000Y-101400000D03*
%TD*%
%TO.C,TP1*%
X105700000Y-121600000D03*
%TD*%
%TO.C,TP5*%
X105700000Y-101400000D03*
%TD*%
D15*
%TO.C,REF\u002A\u002A*%
X134500000Y-102500000D03*
%TD*%
D13*
%TO.C,REF\u002A\u002A*%
X102500000Y-102500000D03*
%TD*%
D14*
%TO.C,TP10*%
X118400000Y-101400000D03*
%TD*%
%TO.C,TP8*%
X113320000Y-101400000D03*
%TD*%
%TO.C,TP7*%
X110780000Y-101400000D03*
%TD*%
D16*
%TO.C,BT1*%
X134350000Y-111250000D03*
X105050000Y-111250000D03*
%TD*%
%LPD*%
M02*
