%TF.GenerationSoftware,KiCad,Pcbnew,8.0.4*%
%TF.CreationDate,2024-08-13T11:19:50+12:00*%
%TF.ProjectId,yuzu-pcb,79757a75-2d70-4636-922e-6b696361645f,rev?*%
%TF.SameCoordinates,Original*%
%TF.FileFunction,Other,Comment*%
%FSLAX46Y46*%
G04 Gerber Fmt 4.6, Leading zero omitted, Abs format (unit mm)*
G04 Created by KiCad (PCBNEW 8.0.4) date 2024-08-13 11:19:50*
%MOMM*%
%LPD*%
G01*
G04 APERTURE LIST*
%ADD10C,0.150000*%
%ADD11C,0.100000*%
%ADD12C,0.050000*%
G04 APERTURE END LIST*
D10*
X113833334Y-126804819D02*
X114452381Y-126804819D01*
X114452381Y-126804819D02*
X114119048Y-127185771D01*
X114119048Y-127185771D02*
X114261905Y-127185771D01*
X114261905Y-127185771D02*
X114357143Y-127233390D01*
X114357143Y-127233390D02*
X114404762Y-127281009D01*
X114404762Y-127281009D02*
X114452381Y-127376247D01*
X114452381Y-127376247D02*
X114452381Y-127614342D01*
X114452381Y-127614342D02*
X114404762Y-127709580D01*
X114404762Y-127709580D02*
X114357143Y-127757200D01*
X114357143Y-127757200D02*
X114261905Y-127804819D01*
X114261905Y-127804819D02*
X113976191Y-127804819D01*
X113976191Y-127804819D02*
X113880953Y-127757200D01*
X113880953Y-127757200D02*
X113833334Y-127709580D01*
X114785715Y-126804819D02*
X115452381Y-126804819D01*
X115452381Y-126804819D02*
X115023810Y-127804819D01*
X115833334Y-127709580D02*
X115880953Y-127757200D01*
X115880953Y-127757200D02*
X115833334Y-127804819D01*
X115833334Y-127804819D02*
X115785715Y-127757200D01*
X115785715Y-127757200D02*
X115833334Y-127709580D01*
X115833334Y-127709580D02*
X115833334Y-127804819D01*
X116500000Y-126804819D02*
X116595238Y-126804819D01*
X116595238Y-126804819D02*
X116690476Y-126852438D01*
X116690476Y-126852438D02*
X116738095Y-126900057D01*
X116738095Y-126900057D02*
X116785714Y-126995295D01*
X116785714Y-126995295D02*
X116833333Y-127185771D01*
X116833333Y-127185771D02*
X116833333Y-127423866D01*
X116833333Y-127423866D02*
X116785714Y-127614342D01*
X116785714Y-127614342D02*
X116738095Y-127709580D01*
X116738095Y-127709580D02*
X116690476Y-127757200D01*
X116690476Y-127757200D02*
X116595238Y-127804819D01*
X116595238Y-127804819D02*
X116500000Y-127804819D01*
X116500000Y-127804819D02*
X116404762Y-127757200D01*
X116404762Y-127757200D02*
X116357143Y-127709580D01*
X116357143Y-127709580D02*
X116309524Y-127614342D01*
X116309524Y-127614342D02*
X116261905Y-127423866D01*
X116261905Y-127423866D02*
X116261905Y-127185771D01*
X116261905Y-127185771D02*
X116309524Y-126995295D01*
X116309524Y-126995295D02*
X116357143Y-126900057D01*
X116357143Y-126900057D02*
X116404762Y-126852438D01*
X116404762Y-126852438D02*
X116500000Y-126804819D01*
X117452381Y-126804819D02*
X117547619Y-126804819D01*
X117547619Y-126804819D02*
X117642857Y-126852438D01*
X117642857Y-126852438D02*
X117690476Y-126900057D01*
X117690476Y-126900057D02*
X117738095Y-126995295D01*
X117738095Y-126995295D02*
X117785714Y-127185771D01*
X117785714Y-127185771D02*
X117785714Y-127423866D01*
X117785714Y-127423866D02*
X117738095Y-127614342D01*
X117738095Y-127614342D02*
X117690476Y-127709580D01*
X117690476Y-127709580D02*
X117642857Y-127757200D01*
X117642857Y-127757200D02*
X117547619Y-127804819D01*
X117547619Y-127804819D02*
X117452381Y-127804819D01*
X117452381Y-127804819D02*
X117357143Y-127757200D01*
X117357143Y-127757200D02*
X117309524Y-127709580D01*
X117309524Y-127709580D02*
X117261905Y-127614342D01*
X117261905Y-127614342D02*
X117214286Y-127423866D01*
X117214286Y-127423866D02*
X117214286Y-127185771D01*
X117214286Y-127185771D02*
X117261905Y-126995295D01*
X117261905Y-126995295D02*
X117309524Y-126900057D01*
X117309524Y-126900057D02*
X117357143Y-126852438D01*
X117357143Y-126852438D02*
X117452381Y-126804819D01*
X118404762Y-126804819D02*
X118500000Y-126804819D01*
X118500000Y-126804819D02*
X118595238Y-126852438D01*
X118595238Y-126852438D02*
X118642857Y-126900057D01*
X118642857Y-126900057D02*
X118690476Y-126995295D01*
X118690476Y-126995295D02*
X118738095Y-127185771D01*
X118738095Y-127185771D02*
X118738095Y-127423866D01*
X118738095Y-127423866D02*
X118690476Y-127614342D01*
X118690476Y-127614342D02*
X118642857Y-127709580D01*
X118642857Y-127709580D02*
X118595238Y-127757200D01*
X118595238Y-127757200D02*
X118500000Y-127804819D01*
X118500000Y-127804819D02*
X118404762Y-127804819D01*
X118404762Y-127804819D02*
X118309524Y-127757200D01*
X118309524Y-127757200D02*
X118261905Y-127709580D01*
X118261905Y-127709580D02*
X118214286Y-127614342D01*
X118214286Y-127614342D02*
X118166667Y-127423866D01*
X118166667Y-127423866D02*
X118166667Y-127185771D01*
X118166667Y-127185771D02*
X118214286Y-126995295D01*
X118214286Y-126995295D02*
X118261905Y-126900057D01*
X118261905Y-126900057D02*
X118309524Y-126852438D01*
X118309524Y-126852438D02*
X118404762Y-126804819D01*
X119357143Y-126804819D02*
X119452381Y-126804819D01*
X119452381Y-126804819D02*
X119547619Y-126852438D01*
X119547619Y-126852438D02*
X119595238Y-126900057D01*
X119595238Y-126900057D02*
X119642857Y-126995295D01*
X119642857Y-126995295D02*
X119690476Y-127185771D01*
X119690476Y-127185771D02*
X119690476Y-127423866D01*
X119690476Y-127423866D02*
X119642857Y-127614342D01*
X119642857Y-127614342D02*
X119595238Y-127709580D01*
X119595238Y-127709580D02*
X119547619Y-127757200D01*
X119547619Y-127757200D02*
X119452381Y-127804819D01*
X119452381Y-127804819D02*
X119357143Y-127804819D01*
X119357143Y-127804819D02*
X119261905Y-127757200D01*
X119261905Y-127757200D02*
X119214286Y-127709580D01*
X119214286Y-127709580D02*
X119166667Y-127614342D01*
X119166667Y-127614342D02*
X119119048Y-127423866D01*
X119119048Y-127423866D02*
X119119048Y-127185771D01*
X119119048Y-127185771D02*
X119166667Y-126995295D01*
X119166667Y-126995295D02*
X119214286Y-126900057D01*
X119214286Y-126900057D02*
X119261905Y-126852438D01*
X119261905Y-126852438D02*
X119357143Y-126804819D01*
X120880953Y-127804819D02*
X120880953Y-127138152D01*
X120880953Y-127233390D02*
X120928572Y-127185771D01*
X120928572Y-127185771D02*
X121023810Y-127138152D01*
X121023810Y-127138152D02*
X121166667Y-127138152D01*
X121166667Y-127138152D02*
X121261905Y-127185771D01*
X121261905Y-127185771D02*
X121309524Y-127281009D01*
X121309524Y-127281009D02*
X121309524Y-127804819D01*
X121309524Y-127281009D02*
X121357143Y-127185771D01*
X121357143Y-127185771D02*
X121452381Y-127138152D01*
X121452381Y-127138152D02*
X121595238Y-127138152D01*
X121595238Y-127138152D02*
X121690477Y-127185771D01*
X121690477Y-127185771D02*
X121738096Y-127281009D01*
X121738096Y-127281009D02*
X121738096Y-127804819D01*
X122214286Y-127804819D02*
X122214286Y-127138152D01*
X122214286Y-127233390D02*
X122261905Y-127185771D01*
X122261905Y-127185771D02*
X122357143Y-127138152D01*
X122357143Y-127138152D02*
X122500000Y-127138152D01*
X122500000Y-127138152D02*
X122595238Y-127185771D01*
X122595238Y-127185771D02*
X122642857Y-127281009D01*
X122642857Y-127281009D02*
X122642857Y-127804819D01*
X122642857Y-127281009D02*
X122690476Y-127185771D01*
X122690476Y-127185771D02*
X122785714Y-127138152D01*
X122785714Y-127138152D02*
X122928571Y-127138152D01*
X122928571Y-127138152D02*
X123023810Y-127185771D01*
X123023810Y-127185771D02*
X123071429Y-127281009D01*
X123071429Y-127281009D02*
X123071429Y-127804819D01*
D11*
X100000000Y-123500000D02*
X100000000Y-129086420D01*
X137000000Y-123500000D02*
X137000000Y-129086420D01*
X100000000Y-128500000D02*
X137000000Y-128500000D01*
X100000000Y-128500000D02*
X137000000Y-128500000D01*
X100000000Y-128500000D02*
X101126504Y-127913579D01*
X100000000Y-128500000D02*
X101126504Y-129086421D01*
X137000000Y-128500000D02*
X135873496Y-129086421D01*
X137000000Y-128500000D02*
X135873496Y-127913579D01*
D10*
X92400057Y-116119046D02*
X92352438Y-116071427D01*
X92352438Y-116071427D02*
X92304819Y-115976189D01*
X92304819Y-115976189D02*
X92304819Y-115738094D01*
X92304819Y-115738094D02*
X92352438Y-115642856D01*
X92352438Y-115642856D02*
X92400057Y-115595237D01*
X92400057Y-115595237D02*
X92495295Y-115547618D01*
X92495295Y-115547618D02*
X92590533Y-115547618D01*
X92590533Y-115547618D02*
X92733390Y-115595237D01*
X92733390Y-115595237D02*
X93304819Y-116166665D01*
X93304819Y-116166665D02*
X93304819Y-115547618D01*
X92304819Y-115214284D02*
X92304819Y-114595237D01*
X92304819Y-114595237D02*
X92685771Y-114928570D01*
X92685771Y-114928570D02*
X92685771Y-114785713D01*
X92685771Y-114785713D02*
X92733390Y-114690475D01*
X92733390Y-114690475D02*
X92781009Y-114642856D01*
X92781009Y-114642856D02*
X92876247Y-114595237D01*
X92876247Y-114595237D02*
X93114342Y-114595237D01*
X93114342Y-114595237D02*
X93209580Y-114642856D01*
X93209580Y-114642856D02*
X93257200Y-114690475D01*
X93257200Y-114690475D02*
X93304819Y-114785713D01*
X93304819Y-114785713D02*
X93304819Y-115071427D01*
X93304819Y-115071427D02*
X93257200Y-115166665D01*
X93257200Y-115166665D02*
X93209580Y-115214284D01*
X93209580Y-114166665D02*
X93257200Y-114119046D01*
X93257200Y-114119046D02*
X93304819Y-114166665D01*
X93304819Y-114166665D02*
X93257200Y-114214284D01*
X93257200Y-114214284D02*
X93209580Y-114166665D01*
X93209580Y-114166665D02*
X93304819Y-114166665D01*
X92304819Y-113499999D02*
X92304819Y-113404761D01*
X92304819Y-113404761D02*
X92352438Y-113309523D01*
X92352438Y-113309523D02*
X92400057Y-113261904D01*
X92400057Y-113261904D02*
X92495295Y-113214285D01*
X92495295Y-113214285D02*
X92685771Y-113166666D01*
X92685771Y-113166666D02*
X92923866Y-113166666D01*
X92923866Y-113166666D02*
X93114342Y-113214285D01*
X93114342Y-113214285D02*
X93209580Y-113261904D01*
X93209580Y-113261904D02*
X93257200Y-113309523D01*
X93257200Y-113309523D02*
X93304819Y-113404761D01*
X93304819Y-113404761D02*
X93304819Y-113499999D01*
X93304819Y-113499999D02*
X93257200Y-113595237D01*
X93257200Y-113595237D02*
X93209580Y-113642856D01*
X93209580Y-113642856D02*
X93114342Y-113690475D01*
X93114342Y-113690475D02*
X92923866Y-113738094D01*
X92923866Y-113738094D02*
X92685771Y-113738094D01*
X92685771Y-113738094D02*
X92495295Y-113690475D01*
X92495295Y-113690475D02*
X92400057Y-113642856D01*
X92400057Y-113642856D02*
X92352438Y-113595237D01*
X92352438Y-113595237D02*
X92304819Y-113499999D01*
X92304819Y-112547618D02*
X92304819Y-112452380D01*
X92304819Y-112452380D02*
X92352438Y-112357142D01*
X92352438Y-112357142D02*
X92400057Y-112309523D01*
X92400057Y-112309523D02*
X92495295Y-112261904D01*
X92495295Y-112261904D02*
X92685771Y-112214285D01*
X92685771Y-112214285D02*
X92923866Y-112214285D01*
X92923866Y-112214285D02*
X93114342Y-112261904D01*
X93114342Y-112261904D02*
X93209580Y-112309523D01*
X93209580Y-112309523D02*
X93257200Y-112357142D01*
X93257200Y-112357142D02*
X93304819Y-112452380D01*
X93304819Y-112452380D02*
X93304819Y-112547618D01*
X93304819Y-112547618D02*
X93257200Y-112642856D01*
X93257200Y-112642856D02*
X93209580Y-112690475D01*
X93209580Y-112690475D02*
X93114342Y-112738094D01*
X93114342Y-112738094D02*
X92923866Y-112785713D01*
X92923866Y-112785713D02*
X92685771Y-112785713D01*
X92685771Y-112785713D02*
X92495295Y-112738094D01*
X92495295Y-112738094D02*
X92400057Y-112690475D01*
X92400057Y-112690475D02*
X92352438Y-112642856D01*
X92352438Y-112642856D02*
X92304819Y-112547618D01*
X92304819Y-111595237D02*
X92304819Y-111499999D01*
X92304819Y-111499999D02*
X92352438Y-111404761D01*
X92352438Y-111404761D02*
X92400057Y-111357142D01*
X92400057Y-111357142D02*
X92495295Y-111309523D01*
X92495295Y-111309523D02*
X92685771Y-111261904D01*
X92685771Y-111261904D02*
X92923866Y-111261904D01*
X92923866Y-111261904D02*
X93114342Y-111309523D01*
X93114342Y-111309523D02*
X93209580Y-111357142D01*
X93209580Y-111357142D02*
X93257200Y-111404761D01*
X93257200Y-111404761D02*
X93304819Y-111499999D01*
X93304819Y-111499999D02*
X93304819Y-111595237D01*
X93304819Y-111595237D02*
X93257200Y-111690475D01*
X93257200Y-111690475D02*
X93209580Y-111738094D01*
X93209580Y-111738094D02*
X93114342Y-111785713D01*
X93114342Y-111785713D02*
X92923866Y-111833332D01*
X92923866Y-111833332D02*
X92685771Y-111833332D01*
X92685771Y-111833332D02*
X92495295Y-111785713D01*
X92495295Y-111785713D02*
X92400057Y-111738094D01*
X92400057Y-111738094D02*
X92352438Y-111690475D01*
X92352438Y-111690475D02*
X92304819Y-111595237D01*
X92304819Y-110642856D02*
X92304819Y-110547618D01*
X92304819Y-110547618D02*
X92352438Y-110452380D01*
X92352438Y-110452380D02*
X92400057Y-110404761D01*
X92400057Y-110404761D02*
X92495295Y-110357142D01*
X92495295Y-110357142D02*
X92685771Y-110309523D01*
X92685771Y-110309523D02*
X92923866Y-110309523D01*
X92923866Y-110309523D02*
X93114342Y-110357142D01*
X93114342Y-110357142D02*
X93209580Y-110404761D01*
X93209580Y-110404761D02*
X93257200Y-110452380D01*
X93257200Y-110452380D02*
X93304819Y-110547618D01*
X93304819Y-110547618D02*
X93304819Y-110642856D01*
X93304819Y-110642856D02*
X93257200Y-110738094D01*
X93257200Y-110738094D02*
X93209580Y-110785713D01*
X93209580Y-110785713D02*
X93114342Y-110833332D01*
X93114342Y-110833332D02*
X92923866Y-110880951D01*
X92923866Y-110880951D02*
X92685771Y-110880951D01*
X92685771Y-110880951D02*
X92495295Y-110833332D01*
X92495295Y-110833332D02*
X92400057Y-110785713D01*
X92400057Y-110785713D02*
X92352438Y-110738094D01*
X92352438Y-110738094D02*
X92304819Y-110642856D01*
X93304819Y-109119046D02*
X92638152Y-109119046D01*
X92733390Y-109119046D02*
X92685771Y-109071427D01*
X92685771Y-109071427D02*
X92638152Y-108976189D01*
X92638152Y-108976189D02*
X92638152Y-108833332D01*
X92638152Y-108833332D02*
X92685771Y-108738094D01*
X92685771Y-108738094D02*
X92781009Y-108690475D01*
X92781009Y-108690475D02*
X93304819Y-108690475D01*
X92781009Y-108690475D02*
X92685771Y-108642856D01*
X92685771Y-108642856D02*
X92638152Y-108547618D01*
X92638152Y-108547618D02*
X92638152Y-108404761D01*
X92638152Y-108404761D02*
X92685771Y-108309522D01*
X92685771Y-108309522D02*
X92781009Y-108261903D01*
X92781009Y-108261903D02*
X93304819Y-108261903D01*
X93304819Y-107785713D02*
X92638152Y-107785713D01*
X92733390Y-107785713D02*
X92685771Y-107738094D01*
X92685771Y-107738094D02*
X92638152Y-107642856D01*
X92638152Y-107642856D02*
X92638152Y-107499999D01*
X92638152Y-107499999D02*
X92685771Y-107404761D01*
X92685771Y-107404761D02*
X92781009Y-107357142D01*
X92781009Y-107357142D02*
X93304819Y-107357142D01*
X92781009Y-107357142D02*
X92685771Y-107309523D01*
X92685771Y-107309523D02*
X92638152Y-107214285D01*
X92638152Y-107214285D02*
X92638152Y-107071428D01*
X92638152Y-107071428D02*
X92685771Y-106976189D01*
X92685771Y-106976189D02*
X92781009Y-106928570D01*
X92781009Y-106928570D02*
X93304819Y-106928570D01*
D12*
X99500000Y-100000000D02*
X93413580Y-100000000D01*
X99500000Y-123000000D02*
X93413580Y-123000000D01*
X94000000Y-100000000D02*
X94000000Y-123000000D01*
X94000000Y-100000000D02*
X94000000Y-123000000D01*
X94000000Y-100000000D02*
X94586421Y-101126504D01*
X94000000Y-100000000D02*
X93413579Y-101126504D01*
X94000000Y-123000000D02*
X93413579Y-121873496D01*
X94000000Y-123000000D02*
X94586421Y-121873496D01*
M02*
