%TF.GenerationSoftware,KiCad,Pcbnew,8.0.2*%
%TF.CreationDate,2024-05-18T21:01:54+12:00*%
%TF.ProjectId,yuzu-pcb,79757a75-2d70-4636-922e-6b696361645f,rev?*%
%TF.SameCoordinates,Original*%
%TF.FileFunction,Profile,NP*%
%FSLAX46Y46*%
G04 Gerber Fmt 4.6, Leading zero omitted, Abs format (unit mm)*
G04 Created by KiCad (PCBNEW 8.0.2) date 2024-05-18 21:01:54*
%MOMM*%
%LPD*%
G01*
G04 APERTURE LIST*
%TA.AperFunction,Profile*%
%ADD10C,0.100000*%
%TD*%
G04 APERTURE END LIST*
D10*
X102000000Y-100000000D02*
X135000000Y-100000000D01*
X135000000Y-100000000D02*
G75*
G02*
X137000000Y-102000000I0J-2000000D01*
G01*
X131750000Y-120200000D02*
G75*
G02*
X131950000Y-120000000I200000J0D01*
G01*
X132550000Y-120000000D02*
G75*
G02*
X132750000Y-120200000I0J-200000D01*
G01*
X134000000Y-118100000D02*
X134000000Y-117500000D01*
X136800000Y-118300000D02*
X134200000Y-118300000D01*
X134000000Y-117500000D02*
G75*
G02*
X134200000Y-117300000I200000J0D01*
G01*
X132950000Y-123000000D02*
G75*
G02*
X132750000Y-122800000I0J200000D01*
G01*
X136800000Y-118300000D02*
G75*
G02*
X137000000Y-118500000I0J-200000D01*
G01*
X137000000Y-121000000D02*
G75*
G02*
X135000000Y-123000000I-2000000J0D01*
G01*
X137000000Y-117100000D02*
G75*
G02*
X136800000Y-117300000I-200000J0D01*
G01*
X135000000Y-123000000D02*
X132950000Y-123000000D01*
X137000000Y-118500000D02*
X137000000Y-121000000D01*
X137000000Y-102000000D02*
X137000000Y-117100000D01*
X131750000Y-122800000D02*
G75*
G02*
X131550000Y-123000000I-200000J0D01*
G01*
X134200000Y-118300000D02*
G75*
G02*
X134000000Y-118100000I0J200000D01*
G01*
X100000000Y-121000000D02*
X100000000Y-102000000D01*
X100000000Y-102000000D02*
G75*
G02*
X102000000Y-100000000I2000000J0D01*
G01*
X136800000Y-117300000D02*
X134200000Y-117300000D01*
X132750000Y-122800000D02*
X132750000Y-120200000D01*
X132550000Y-120000000D02*
X131950000Y-120000000D01*
X131550000Y-123000000D02*
X102000000Y-123000000D01*
X102000000Y-123000000D02*
G75*
G02*
X100000000Y-121000000I0J2000000D01*
G01*
X131750000Y-122800000D02*
X131750000Y-120200000D01*
M02*
